<?xml version="1.0" encoding="UTF-8"?>
<svg id="a" xmlns="http://www.w3.org/2000/svg" viewBox="0 0 679.1 765.55">
  <defs>
    <style>
      .c {fill: #fff;}
      .d {fill: #1679b2;}
    </style>
  </defs>
  <g id="b">
    <path class="d" d="m347.9.76c2.2-.6,5.3-1.6,6.9.6,6.7,9.3,13.6,18.5,20,28,3.9,6.8,6.9,14.4,6.9,22.3-.2,5.6.6,11.5-1.3,16.9-2.6,5.8-8.2,9.9-14.3,11.6-2.8.9-5.8,1.2-8.4,2.5-1.5,1.3,1.3,2.2,1.9,3.3v4.4c-1.1.7-2.3,1.4-3.4,2.1,1.6,8.3,1.6,16.9,3.3,25.2.9,4.9.2,9.8.6,14.7,2.5,1.8,5.8,1,8.7,1.4,8.3.8,16.9,1.2,24.9,3.6,3.9.8,7.9,1.3,11.6,2.7.9-6,3.1-11.6,4.5-17.4-1.9-1.8-3-4.2-3.3-6.7-5.3-.1-10.7.3-15.8,2.1-2.5.9-5.1.7-7.6.1,2.1-1.7,4.7-2.5,7.1-3.6,6-3.1,12-6.3,18.3-8.6.4.7,1.2,2,1.6,2.6,2.3-.5,3.6-2.5,4.5-4.4,3.4-7.5,4.7-15.6,7-23.4,1.1-6.8,3.6-13.2,4.9-20,1.7-5.2,2.2-10.6,4.1-15.7,1-3,1.3-6.1,2-9.1.9-.5,1.8-.9,2.7-1.4,1.1,5.1-1.9,9.8-2.6,14.8-.6,4.6-2.2,9.1-3.2,13.6-2.3,13.4-6.4,26.4-8.2,39.8-.9,4.7,1.2,9.8,5.3,12.4,4.3,1.4,7.7-2.1,10.8-4.4,1.3-1.9,1.7-4.3,2.6-6.4,2.2-.9,4.1.9,5.9,2,4.4-2.1,8.6-4.5,13.1-6.4-.4,1.1-.6,2.4-1.7,3-7.1,5.4-14.1,11.2-19.7,18.2-5.9,7.6-8.7,17-10.5,26.3,10.1,3.5,19.3,8.9,29,13.2,1.4-2.3,2.9-4.5,4.3-6.8.2-1.6-.4-3.6.7-4.9,1.8-1.1,3.6-2,5.1-3.4-1.4-2.4-2.6-5.5-5.5-6.4-2.5-1-5-2.2-7.7-2.4-4.1.7-7.4,3.6-11.1,5.3.2-4,3-7.2,5.9-9.5,5.6-3.6,13.2-2.1,18.3,1.7.1-2,1.1-3,3.2-2.6-.3,1.5-.6,3-.9,4.5,2.2-.3,4.8-.9,6-3.1.3-1.3.4-2.6.5-3.9-.8,0-2.3-.1-3.1-.1.7-.5,2.2-1.4,2.9-1.8.1-1.4,0-2.9.4-4.3,7.1-15.7,17.9-29.3,29.1-42.2,1.5-1.7,3.2-3.4,5.1-4.6-.6,5.4-2.3,10.6-4.4,15.6-2.1,7.4-5.5,14.4-8.4,21.6-2.9,5.7-5.3,11.7-9.1,16.8-.7,1.2-2.1,1.6-3.2,2.2.2,1.3.9,2.7-.4,3.6-.8-1-1.4-2-2.1-3.1-1,1.2-2.1,2.4-3.1,3.8-.3,1.8.1,3.6.4,5.4,1-.7,2.1-1.4,3.1-2.1.5.6,1.1,1.2,1.7,1.8-.6.9-1.3,1.7-1.9,2.6,1.6,1.1,3.1,2.8,5.1,2.9,3.6-1.2,7.2-2.9,10-5.5,1.9-1.7,3.5-3.9,6.2-4.3-2.3,6.4-5.8,14.1-13.1,15.7.7,1.1,2.2,2,1.8,3.5-.7.6-1.5,1-2.3,1.3-.2-.7-.7-2-1-2.7-4.9-.6-9.4-3-12.7-6.8-3.6,1.1-3.6,4.8-2.4,7.7-1.4,1.5-3.3,2.2-5,3-.9,2.5-2.1,4.8-3.6,7,12.9,8.4,25.3,17.8,36.4,28.4,3.8-2.2,6.7-5.5,7.7-9.8,2.3-.6,5.4-.5,6.7-2.9-1-6.1-6.7-10.1-12.5-11.1-3.5.2-6.8,1.5-10.2,1.9,2.3-4.4,7-8,12.1-8,5.2-.5,10.2,2.9,13.1,7.1.6-1.9,1.9-2.4,3.7-1.7-.6,1.4-1.3,2.6-1.9,3.9,1.7,0,3.3.1,5,.2,1.1-1.6,2.3-3.1,3.5-4.6-.6-.3-1.9-.8-2.5-1.1-1.2-2.2,1.9-1.2,3-1.2-.2-3.2,1.6-5.8,3.9-7.8,9.7-11.1,21.8-19.8,33.8-28.1,2.6-1.8,5.2-3.6,8.3-4.6-2.1,6.3-6.9,11.1-10.2,16.7-5.9,8.6-12.4,16.9-19.4,24.6-2.6,2.6-4.9,6.3-9,6.5,0,1.7.2,3.8-2.3,3.4-.1-.7-.2-2.1-.3-2.8-3.9-.5-6,4.9-4,7.4.6-.3,1.8-1.1,2.4-1.4.3.7.9,2,1.2,2.6-1,.7-2,1.4-3.1,2.1,2.1,2,4.6,4.2,7.7,3.8,5.3-.9,9.8-4.1,14.8-5.7-.7,3.6-4,5.8-6.4,8.2-2.6,2.6-6.1,3.6-9.5,4.5.3,1,.6,2.1.9,3.1-.6.1-1.9.3-2.5.5-.6-3.1-4.2-3.7-6.2-5.5-2.6-1.5-3.2-4.6-5.1-6.6-4-1.3-4.6,4-4.5,6.7-4.3,1.2-8.1,3.7-10.5,7.6,11.4,11.6,21.3,24.7,30.5,38.1,1.9-1.3,3.6-3,6-3.4,1.9-3.2,6-3.5,8.9-5.6-1.3-1-2.8-1.9-4-3.1-.6-2.9-1.5-5.7-3.7-7.8-.3,1-.6,2-.9,3-1.2-.7-3.3-1.5-2.2-3.2.4-.5,1.3-1.4,1.7-1.9-3.9-1.9-7.9.1-11.6,1.7-1.9-.2-1-2.2-.7-3.4,3.4-2.5,7.4-4.4,11.8-3.6,3.8,0,6.4,2.7,8.7,5.4.6-.3,1.7-.9,2.3-1.2.4.6,1.2,1.8,1.6,2.4-.5.5-1.5,1.6-1.9,2.1,1.4,1.3,2.8,2.7,4.5,3.6,2,0,3.6-1.4,5.2-2.4.8-3.1,3.2-5.6,5.5-7.6,12.4-8.2,24.3-17.4,37.5-24.5,3.5-1.7,6.7-5.2,10.9-4.8-.7,3.1-3.3,5-5.3,7.2-3.9,5-9.1,8.7-13.6,13.1-6.9,5.9-14,11.6-21,17.5-2.4,2.3-5.7,3.2-8.8,4-2.2,1.9-3.8,5.3-7.2,4.9,1.8,1.5,3.4,3.2,4.5,5.4,2.9,1.5,6.1,1.3,9.2.6.8-.8,1.5-1.5,2.3-2.3.2,1.8-.5,3.5-1.2,5.2-2.6,1.6-5.6,2.5-8.7,2.3.2.4.5,1.3.7,1.7-1.4,0-2.7,0-4.1-.1-1.7-1.4-3.2-3-4.4-4.8-.9-.3-1.8-.6-2.7-.9v-4c-3.8,1.6-4.5,7.3-9.3,7.2-.1.5-.2,1.6-.3,2.2-1.4.8-3,1.6-4.1,2.8-.3,1.2.7,2.2,1.2,3.3,5.5,8.7,10.2,18,14.9,27.2,2.6,5.6,4.8,11.5,7.8,16.9,3.8-1.3,6.9-4.2,10.8-5.1.5.7,1.1,1.4,1.6,2.1.7-2,1.2-4,.3-6-.8,0-2.4-.1-3.3-.2.1-1.8.5-3.6,2.6-4-.7-1-1.3-2-1.9-3,1.4-2.9,2.5-6.5,5.9-7.6,4.3-2.9,9.8-2.8,14.4-4.9,8.4-2.1,17-1.9,25.6-2.5,8.4.3,17-.8,25.3,1.1,2.1,2.3-.1,5.1-1.6,7-7.4,9.2-16.2,17.1-25,24.9-6.2,5-13,9.6-20.3,12.8-2.3,1.1-4.9,1.1-7.3.9-1.4-.3-2.3-1.6-3.8-1.5-.4-1.3-.7-2.6-.9-3.9-.6.4-1.8,1.2-2.4,1.6-.6-.9-1.2-1.7-1.9-2.6.5-.5,1.5-1.6,2.1-2.1-.9-1.7-2.3-2.9-4.2-3.1,0,.6-.1,1.7-.2,2.3-3.9,1.5-7.8,2.9-11.8,3.9,1.8,4.7,3,9.6,5.2,14.1,2.4,8.3,4.9,16.6,7,25,.7,4.4,1.6,8.8,3.2,13,3.2-.3,6.3-.7,9.5-1.2.2-.5.7-1.6,1-2.2,3.2-.9,7.3-3.5,6-7.4-2-5.5-7.3-8.9-9.7-14.2-.6-2.8,2.6-2,3.9-.8,4.9,3.8,9.3,8.2,12.9,13.2,1.2,2.1.1,4.5-.2,6.7-.6,2,2,2.2,3.3,2.5,2.1-.3,3.8-1.8,5.5-3,5.6-.9,11.3-1.5,16.9-2.2,8.5-1.9,17.4-2,25.9-3.9,5.2-1.2,10.5-1.4,15.7-.2-.1.6-.2,1.6-.3,2.2-3.5,2.8-7.8,4.2-12.1,5-6,1.9-12.4,1.9-18.5,3.5-5.6,1.5-11.4,1.7-16.9,3.4-4.3.9-8.9,2.3-13.1.4-3,.8-4.2,4.6-1.8,6.8,3.9,1.9,8.3,2.4,12.5,2.8,2.5,5.1,1.9,11.1,4.2,16.3,0,.8.1,2.3.1,3.1-7.5-2.2-7.8-12.5-15.1-14.8-5.8.3-12.6-.3-17.2,4-3.4,3.7-4.6,9-8.4,12.4.3,9.8,1.2,19.5.9,29.3.9.6,1.9,1.2,2.8,1.9.9-.4,1.8-.7,2.8-1.1,1.4.4,2.8.9,4.1,1.4.7-7.4,4.3-15.1.9-22.4-1.8-.4-3.6-.7-5.4-1-.2-.6-.7-1.7-1-2.3,4.1-.9,7.7-4,12.1-2.4,2.6,1.6,5.5,3.2,5.5,6.7.4.2,1.3.7,1.7.9,2.5,4.8,1.7,10.4,1.9,15.6,7,2.1,14.3.6,21.5,1.6,6.3,0,12.7.6,19,.8,3.5-.1,6.5,1.8,9.6,3.1v3c-2.6.8-5.1,2-7.7,2.8-2.7.2-5.4-.1-8,.1-8.2,1.1-16.6-.3-24.9.5-3.7.5-7.4.4-11,.5-.2,2.7-.7,5.4-1.7,7.9.8,3.2,1.8,6.3,3.2,9.4.6,1.9,2.9,1.9,4.3,2.9.8,1.2-.2,2.7-1.2,3.4-5.9,1-12.6-.9-16.3-5.9-2.4-4.6-4.5-9.7-3.5-15,1.3-1.7,1.5-3.8,1.4-5.8-3.3.2-6.5,1.3-9.8.7-1.2,14.8-.8,29.6-2.5,44.4.9-.3,1.8-.6,2.6-.8.2.6.7,1.7,1,2.2,2.1.8,4.3,1.2,6.6,1,.1-.7.3-2.2.3-2.9.7,0,2,.1,2.6.2.9-1.8,1.6-3.9,3-5.4,7.1-1.4,13.8,1.8,20.6,3,9.1,3.5,18.2,6.9,27.1,10.9,2.2,1.6,5.5,2.5,6.1,5.5-7.2,3.2-15.1,3.4-22.8,4.7-8.2,2-16.8,1.6-25.2,1.7-3.2-.1-6.4-.9-9.1-2.7,0-2.5-.8-5-3.4-5.9,0-.6-.1-1.9-.2-2.5-2.3-.5-4.6-.9-6.9-1.2.2,2.8-1.7,2.5-3.7,1.8-.1,7.9-1.5,15.7-2.1,23.6-1.47,8.56-2.7,19.2-4.5,28,1.9.6,3.9,1.1,5.9,1.6,1.6-2.7,4.1-4.8,7-6-.3-2.3-.5-4.8,1.2-6.6,1.4-2.3,4.4-1.7,6.7-1.9,1,.7,2.1,1.4,3.1,2.2.1.6.3,1.7.4,2.3,2.5-2,6.9-2.7,9.3-.1,1.8,2.9,1.8,7.2-1.6,9.1,12.5,4.7,25.4,8.6,37.9,13.3-.2,1.2-.3,2.5-.5,3.8-9.2.4-18.3-.9-27.5-.9-3.1-1-6.4-1.3-9.5.1,0,1.5-.1,3-1.2,4.1-1.4,1.4-1.1,4-3.4,4.4v1.9c-.8,0-2.2-.2-3-.2-.4.4-1.1,1.2-1.5,1.6-1.5-.5-3.1-.4-4.7-.5-2.4-1-4.6-2.6-7.3-2.5-.1-.8-.4-2.5-.5-3.3-.7.2-2,.6-2.7.7-.7-2.6-.2-5.6-2-7.9.5-.8,2.4-1.7,1.5-2.8-1.4-1.9-2.3-4-2.8-6.3-1.8-.3-3.7-.6-5.6-.7-.4,3-.8,6-1.5,9-1.61,6.64-2.52,14.05-4.4,20.5,12.2,19.4,25.5,38.1,38.1,57.3,5.8,9.1,12.2,17.9,18,26.9,1.3,2,1,4.4,1,6.7.2,2.6-3.3,4.1-2.3,6.7,3.8,10.4,7.4,21.1,13.9,30.1,1.8,2.2,1.6,5.2.9,7.8-2.8-.4-5.4.4-7.9,1.5-1.2,1.6-2.4,3.2-3.5,4.8-2.7.3-6-.7-8.3,1.3-1.3,1.1-2.1,2.7-3.1,4.2-2.5-.3-5-.5-7.5-.6-1.1,1.2-2.3,2.4-3.4,3.7-.1.6-.3,1.7-.3,2.3-3.3-.6-6.7-1.1-9.8.2-1.5,1.8-2.7,4-4.5,5.6-3.5-.3-7.4-1.8-10.8,0-1.8,1.4-3,3.3-4.4,5-3-.1-5.9-.7-8.8-1.5-3.9.6-5.9,4-7.9,7-3.7-.1-7.2-1.8-10.9-.8-3.9.8-5.4,5.4-9.1,6.6-3.2.4-5.9-2-9-1.8-2.8.7-5.6,1.9-7.7,3.9-1.9,1.8-4.5,3.5-7.2,2.6-4-.7-8.3-3.1-12.3-1.2-4,1.2-5.9,6.7-10.5,6.1-3.7-1.5-7.9-3.5-11.9-1.9-2.7,1.5-4.7,3.7-7.2,5.4-3.2.6-5.9-1.9-9-2.2-4.1-.8-7.4,2.6-10.2,5-1.2,0-2.4-.1-3.6-.1-2.8-1.6-5.9-2.6-9.1-2.7-3.5.6-5.7,3.8-8.9,5.2-3.8-.8-7.6-1.7-11.4-2.7-2.5.7-5.1,1.3-7.4,2.8-1.5.9-3,2.5-4.9,2-3.9-.8-7.5-4-11.6-2.7-3.4,1.4-6.6,3.1-10,4.5-3.9-1.7-8-2.8-12.1-4.1-4.1.1-7.4,2.9-10.9,4.7-4.1.7-6.9-3.9-11-3.4-3.9-.5-6.5,3-10,4-3.4-1.8-6.9-4.7-11-3.9-3.7-.1-6,4.7-9.9,3.1-3.6-1.9-7.1-4.7-11.4-4.6-3.7,1.9-7.9,2.4-11.7,4.2-4.1-1.6-7.8-4.2-12-5.2-4,.8-7.8,4.3-12,3-2.8-1.7-5.5-3.7-8.9-4.4-4.3.8-8.5,2.3-13,2.4-2.8-1.5-4.7-4.6-8.1-4.9-3.2-.3-6.4,1.1-9.1,2.7-1.2,0-2.4-.1-3.6-.1-2.7-2.2-5.3-5.6-9.2-5.1-3.5.1-6.4,3.2-10,2.2-2.7-1.9-5-4.5-8.2-5.6-3.5-.8-7.1.4-10,2.2-5.2,1.2-7.1-4.9-11.4-6.1-5.1-2.3-10.2,1.8-15.3,1.3-3.4-1.4-5.5-4.7-9.1-5.8-4.4-2.7-8.8,2.3-13.4.6-2-2.2-3.9-4.7-6.6-6.1-3.7-1.2-7.4.5-11.1.6-2.7-1.2-3.1-4.9-5.9-6-3.8-2.1-7.6,1.4-11.6.5-1.5-1.8-2.6-4.1-4.8-5.3-3.4-.9-7-.2-10.3.5-2-2.1-3.1-5.3-6-6.3-2.5-.9-5.1,0-7.6.2-1-2.1-2.4-4-3.9-5.8-2.7,0-5.4.2-8,.6-1-2.1-2.2-4.7-4.7-5.4-2.2-.3-4.5-.1-6.8-.5-1-1.4-1.8-2.9-2.6-4.3-2.6-1.3-5.5-2-8.4-1.9-.5-2.8-.9-5.8,1.2-8.1,6.7-9,10.1-19.8,13.5-30.3-1.6-1.9-3.1-3.9-4.4-6,0-1.5.1-2.9.1-4.4,3.5-6.7,8.3-12.6,12.4-18.9,15.7-23.7,31.7-47.2,47.5-70.9-.9-4.7-2.4-9.2-3.1-14-.5-4.1-2.2-7.9-2.4-12.1-5.7.5-11.5,3-17.2,1,.1.7.2,2.2.2,2.9-.3.5-.9,1.5-1.2,2,.1,2.3.7,5-1.3,6.6-2.4,2-3.6,5.2-6.4,6.7-3.3.8-6.9.7-10.2,1.6-1.4.6-2.7,0-3.9-.8-15.1.1-30-3-44.8-5.2.1-.5.2-1.6.3-2.1,6.5-3.4,12.6-7.6,19-11.2,9.8-5.7,19.2-12.4,30-15.9,4.1-1.7,7.5,1.8,11.2,3,3.4,1.3,4.8,5.1,5.9,8.3,1.7,1,2.1-1.2,3-2.1,4.7-1.4,9.5-2.4,14.2-3.5-2.1-2.2-1.7-5.5-2.2-8.2-1.5-11-3.8-21.9-4.4-33-.3-.5-.8-1.4-1-1.9.1-2.3-.1-4.5-.5-6.8-2.9,1.2-6.1,1.7-9.2,1.8-.5.8-1,1.6-1.6,2.5-3,.6-5.6,2.4-6.5,5.4,1.8,5.3,5.9,9.2,8.8,13.9,1,1.3,1.2,2.8,1.2,4.4-4.4-1.3-7.8-4.4-10.5-8-2-2.7-4.8-4.9-6.1-8.1-.9-2.2.4-4.5,1.1-6.6-1.2-.9-2.4-1.8-3.6-2.7-2.5,1.6-4.9,3.7-8.1,3.7-10.3,1.5-20.6,2.6-31,3.3-8.4,1.3-17,3.3-25.4,1,.9-4.5,6.5-5.6,10.4-6.2,9.8-2.3,19.9-2.8,29.8-4.9,6-.8,12-1.7,18-2.2.7.3,2.1.8,2.8,1,1-.3,2.1-.7,3.1-1,.1-1.6.3-3.1.2-4.7-3.4-3.7-8.8-3.1-13.2-4-1.3-6.5-3.5-12.9-3.1-19.6,7.3,2.6,7,14.2,15.5,15.3,5.2-.6,11,.1,15.5-3.1,3.4-4,5.7-8.7,8.9-12.8,1,5.5-.6,11.1-1.1,16.6-4,1.8-8.4,3-11.7,6,1.7,2,4.5,1.5,6.5,2.9.5-.3,1.6-.8,2.2-1,2.2-.1,4.4-.3,6.6-.6-.4-9.6-1.8-19.2-1.5-28.9-1.9-5.6-.6-11.6-.9-17.4-2.1-.6-4.3-.7-6.5-.5-.5-.3-1.5-.8-2-1.1-2.3.2-4.7-.1-7-.3-2.8-.1-4.8,2.2-6.8,3.7-2.1,4.2-1.9,9.1-.1,13.3,1,1,2.6,2,2.2,3.7-.9.3-1.8.5-2.7.6-4.2-4.1-5.4-10-4.1-15.6-4.5,2.7-9.7,2.1-14.5,1-7.4.2-14.7-.5-22-.6-8-.7-16.2-.4-24.1-2.4-4.6-1.1-9.4-1.2-14-2.6.2-.5.6-1.4.8-1.9,11-4,23-3.3,34.3-5.9,12.9-1,25.9-2.4,38.8-1.9-.4-4-1-8.3,1.2-12,1.2.1,2.5.2,3.7.4-.6,3.8-2.5,7.7-.8,11.5,1.8,2.8,4.8,5,8.3,4.7,5.4-.3,11.1-.4,16.2-2.4-.2-11.1,1.2-22.1,2.2-33.1.3-5.4,2-10.5,2.3-15.9-2.8-.8-5.8-1.3-8.7-1.7-.3-.3-1-1-1.3-1.4-4.8.9-8.6-2.4-13-3.4.5,1.8,1.3,3.5,1,5.4-.2,3.6-5.2,5.8-3.3,9.8,1-.2,1.9-.5,2.9-.7.1,1.2.3,2.4.4,3.7-1.3.1-2.7.1-4,.2,1.6,4.4,5.8,6.9,10.1,7.8.2.9.4,1.8.6,2.8-5.2,1-10.6-.6-14.2-4.5-3-3.4-4.1-8.5-2.8-12.9-2-.5-2.9-2.1-2.8-4.1,1.2-.2,2.4-.5,3.6-.7,0-2.1.6-4.4-.8-6.3-1.2-1.6-3.3-2-5-2.7-8.1,3.5-16.8.1-24.9-1.5-7-1-13.6-3.4-20.5-4.5-8.2-2.1-16.2-5-24.4-7.1-1.9-.7-4.3-1-5.3-3.1,3.7-.5,7.4-1.7,11.1-1.6,12.8,1.9,25.9,1.4,38.8,3.4,5.4,1.5,11,1.5,16.5,2.4,3.5.7,6.5,2.9,9.9,3.9,1.8.1,3.6-.1,5.5-.2.6.7,1.2,1.3,1.8,2,.3-.7.8-2,1-2.7-1.1-1.8.5-3.5.6-5.4-1.7-4.2-5.1-8-9.9-8-.2-3.5,3.6-2.3,5.8-2.5,3-.1,5.4,2.1,7.4,4,.3-.4.9-1.2,1.2-1.5.8.7,1.5,1.4,2.3,2,1.1,3.2,1,6.5.2,9.7.3.5,1,1.6,1.4,2.2-.7,1.5-1.7,2.7-3.2,3.4,4.2,2.8,9.5-1.8,13.3,2.1,3.5-1.5,7.2.1,10.7.8,2.1-11.8,5.1-23.3,8.5-34.8,2.1-5.5,2.7-11.6,5.8-16.7-5.7-4.1-13.1-5.4-18.5-10-.7,1.9-2.2,3.7-1.4,5.8.9,4.5,5.1,6.9,8.8,8.9.4-1.4.7-2.7,1.1-4,1.2.3,3.6,1.4,2.4,3-.8,2.6-3.6,2.9-5.6,4.2,4.7,4.5,4.4,11.3,3.9,17.2-.8,1.4-2.4,1.9-3.6,2.8.7-3.6,1.4-7.4-.1-10.8-3.1-7.9-11.1-12.2-18.8-14.9-5.3-1.3-11.6-2.3-16.3,1-2.8,1.8-3.7,5.1-6.3,7.1-.7-7.2,6.3-12.6,12.7-14.2-1.7-2.1-2.3-4.5-1.7-7.1.5.2,1.5.5,2,.7-1.6,2.8,1.6,4,3.8,3.6,3.7-.8,6.2-4.9,6-8.5-.9-.6-1.9-1.1-2.8-1.6-1.2,2.2-3.6,2.6-5.8,2.6-1.4-2.1-1.3-5.7-4.3-6.1,0,2.6-2.2,2.4-3.2.5-2-.4-4-.7-5.8-1.6-19.2-9.4-38.8-18-58.4-26.5-1.6-1.1-4.6-2.7-3.6-5.1,2.3-.9,4.8-.1,6.9.8,20.8,7.7,41.5,15.5,62.5,22.5.3.5.9,1.4,1.2,1.9.8-.1,2.4-.2,3.2-.2-.3.9-.6,1.8-.9,2.7.9.4,1.8.8,2.7,1.2.4-.5,1.1-1.4,1.5-1.9,1.5-.3,3-.5,4.6-.8.4,1.6.9,3.3,1.4,4.9-1-.3-2.9-.9-3.8-1.3,1.9,2.2,5.2,2.4,7.8,3.3,0-1.9.1-3.9.2-5.8,3.8-3.9,8.5-7.2,14-8.2-.8,1.6-1.6,3.2-2.3,4.8.8,0,2.2,0,3-.1-.2-1.6-.5-3.2-.6-4.9h2.5c-.6,2.9-.7,5.9-1.3,8.9-1.1,2.8-2.6,5.5-3.9,8.2.7,4,5.4,2.7,8.2,4.3,3.7,1.9,8.1,2.1,11.5,4.7,6.5-16.1,13.4-32.1,22.4-47-4.2-3-8.5-5.8-12.8-8.7-1.9-1.3-4.1-4.2-6.4-1.9-2,1.8-3.9,5.1-2.2,7.7,1,2.2,3.7,2.5,5.8,2.8,1.4.7,2.8,1.2,4.3,1.7-.5,2.2-2.1,3.8-3.7,5.2.6,4.4,3.1,8.2,3.6,12.7-3.1-3.4-5.3-7.7-9.1-10.5-7.2-6.4-17.6-8.4-26.9-6.7-3.6.4-6.7,2.9-10.4,2.9,2.9-3.6,6.3-6.7,9.5-10.1,0-1.2.1-2.4.1-3.6,4-1.2,8,1.4,11.8-.2,3.5-1.9,6.3-6.1,4.9-10.1-1.8-3.9-5.7-6.1-9.3-8.2-.4.6-1.2,1.9-1.6,2.6-10.2-7.9-21.2-14.6-31.8-21.8-7-4.9-14.5-8.9-21.2-14.2-2.7-2.3-7.1-3.9-7.4-8,3.7.1,7.2,1.4,10.5,3.2,18.5,10.1,36.3,21.5,55.1,31.2-.2.8-.4,2.3-.6,3,3.1,2.1,6.4,3.8,9.5,5.9.7-.1,2.1-.2,2.8-.3-.1-2.1-1.5-5.1.8-6.5,5.4-3.4,11.2-6.2,16.7-9.4,2-1.1,3.9-2.6,6.2-2.9-2.2,4.6-6.4,7.5-9.8,11.1-2.2,2.4-5.3,4.5-5.5,8.1,2.5,1.4,6.1,4.4,2.9,7.2,5.4,4.4,12,7.3,18.1,10.6,2-2.3,3.4-5,5-7.5,8.2-12.3,17.1-24.3,27.5-34.9-3.5-3.7-6.9-7.4-10.8-10.6-1.5-1.2-1.1-3.4-1.7-5-1.2,1.6-2.4,3.2-3.6,4.8-2.6.8-5.2,1.8-6.8,4.2.6,1,1.1,2.1,1.5,3.2h-3.9c-.4,5.2,2.8,9.6,6.4,13.1-3.2,1.6-6.4-1.4-8.4-3.7-2.4-3.5-4.8-7.8-3.4-12.1,1.4-2.1,2.4-4.4,4.3-6.2-1-1.2-1.2-2.8-1.3-4.3,1.4.2,2.8.5,4.1.8,3.2-2.1,3.2-6.9.1-9-4.4-1.8-8.8-4.2-12.1-7.7-10.4-11.3-21.2-22.3-30.2-34.8-2.1-3.1-5.2-5.7-5.7-9.5,4.3.7,7.3,4,10.9,6.1,10.4,6.8,19.5,15.1,28.7,23.4,3.4,4.2,9.8,6.6,10.5,12.6.5.1,1.3.4,1.8.6,0,4.6,6.1,3.6,7,7.8.8-.7,1.7-1.4,2.5-2.1-.4-.4-1.3-1.3-1.7-1.8.3-.5.8-1.4,1.1-1.9,1,.3,2.1.7,3.1,1,2-4.7-.5-9.7-4.2-12.7,5.7-1.6,9.4,4.8,10.2,9.5.8.5,1.6,1,2.4,1.5-.6,3.8-3.4,6.8-5.9,9.5-.1.5-.3,1.6-.4,2.1-1.1.5-2.3,1-3.4,1.6,2.1.9,4.7,1.2,6.2,3,2.9,3.1,6.6,5.4,9.1,8.9,3.9-1.7,6.2-5.4,9.5-8,8.7-6.9,17.2-14.1,26.7-19.8-3.2-8.1-8.3-15.7-11.5-23.9,4-2.4,9.2-3.1,12.2-6.8-4.7,1.4-8.9,4.1-13.4,6.2-2.6-1.8-2.8-4.8-3.4-7.6-4.2-6.6-6.6-14.4-12.1-20.1,5.4-3.2,11.2-5.4,16.8-8.2,1.4,2.7,2.3,5.6,3,8.5,1.1,4.4,4.1,8,5.6,12.3.8,3.4,5.8,5.6,3.6,9.5,2.1-.4,2.2,1.8,2.9,3.1,2.5,6.4,6,12.2,8.2,18.7,1,.2,2.1.3,3.2.2,2.7-2.8,6.7-3.5,10-5.3,10.8-4.8,22-9.2,33.5-12.2-1.3-7.5-6.4-13.5-10.6-19.6-6.1-8.1-14.1-15.7-16.1-26.1,1.9,1.5,3.3,3.4,4.7,5.3,5.7,8.4,13.4,15.3,18.6,24.1-.7-2.9-1.1-5.9-2-8.8-1.2-2.4-3-4.5-3.1-7.3-1.1-10.3-4.2-20.4-5.1-30.7-.5-3.8,3.4-6.4,6.7-6.4,2.2.7,5,1.8,5.5,4.3,2.2,7.4,2.4,15.2,4.5,22.6.5,5.4,2.9,11,.8,16.3.4,1.7.8,3.5,1.2,5.2,2.5-5,6.6-8.9,9.8-13.5,1.8-2.4,3.2-5,5.7-6.8,0,2.3-.3,4.8-1.9,6.6-3.9,5.8-8.6,11.2-11.7,17.5-1,5,1,10,1.6,15,11.2-3,22.9-3.7,34.5-4.4,2.7-.5,5.5-1,8.3-.9-.4-11,1-22,2.2-32.9.2-1.9.5-3.8,1.2-5.6.1-.4.2-1.2.2-1.5-3.3-.7-3.6-3.8-3.2-6.6,1.2-1,1.7-2.2,1.5-3.6-8.1-1.4-16.9-4.1-21.5-11.4-3.5-5-2.6-11.4-2.7-17.1-.1-5.4.8-10.9,2.9-15.8,3.4-9.2,10.1-16.6,15.5-24.6,2.9-4,6.3-7.8,8.8-12.2m-1.5,28c-3.4,2.9-5.9,6.8-7.6,10.9-1,3.2-1.2,6.6-2.4,9.8-.3,3.4-1.2,6.9,0,10.2,1.5-1,2.8-3.2,4.9-2.7,1.2.7,2.4,1.7,3.5,2.6.7-6,.6-12,1.7-17.9-.1-4.2,1.2-8.7-.1-12.9m9.3.1c-.1,1.9-.3,3.9-.1,5.8,1.8,8.3.7,16.9,2.6,25.2,1.2-1.1,2.2-3.4,4.3-3,1.6.5,2.7,1.9,4,2.8.9-6.5-.4-13.1-2.6-19.3-1.9-4.2-3.7-9.2-8.2-11.5m-20,35.9c1.2,1.3,2.5,2.6,3.8,3.9,1.2-.9,2.5-1.8,3.8-2.8.2-2,.5-4.4-1.8-5.3-3-1.7-4.4,2.5-5.8,4.2m25.1-4.1c-2.5,2-1.6,5.5.8,7.1,1.3,1.6,3.3-.5,4.4-1.5,1-2.8-2-7.4-5.2-5.6m-76.3,12.1c-2.1.9-3.4,2.6-4.1,4.7,2.5,7.7,2.3,16,4.8,23.7,1.3,3.5-.1,8.8,3.3,11.1-.1-5.4-2.4-10.3-2.8-15.6-.6-5.8-2.4-11.3-3.4-17-.7-2.6,1.2-4.7,2.2-6.9m201.3,41.1c-1.8,3.7-4.7,6.9-5.5,11,1.8-1.8,3.3-3.9,4-6.3,1.5.3,1.4,1.9,1.8,3.1-.5.4-1.4,1.2-1.9,1.5-.1,1.2-.3,2.4-.4,3.7,2.7-2.7,4.2-6.2,5.6-9.6,2.6-6.7,6.6-12.8,8.2-19.8-4.5,5-8.2,10.7-11.8,16.4m-70.3,10.9c-2.3,5.3-2.7,11.2-5.1,16.5,5.2,2.3,11.1,3.1,16.1,6-.4-3.8-.5-7.6-1.1-11.3-1.3-.1-2.6-.2-3.9-.3-.6-4.2,4.2-5.3,5.3-9-.8-1.8-1.8-4-4.1-3.9-2.4,0-6.1-1-7.2,2m-284.7,10.8c3.9,5.3,9.1,9.4,13.2,14.6,6.1,5.7,11.6,12.1,17.9,17.5.6-.5,1.9-1.6,2.5-2.1-8.6-8.3-17.7-16.1-26.3-24.4-2.2-2.1-4.6-4.1-7.3-5.6m342.3,2.3c-1.1,1.4,1.2,3.3,2.2,1.8,1.1-1.4-1.2-3.4-2.2-1.8m61.2,28.3c1-.6,1.9-1.3,2.9-1.9.2-.6.5-1.9.7-2.5.8-.1,2.3-.2,3-.3,0,.7-.1,2.1-.1,2.8-2.2.6-3.1,2.8-4.1,4.7,4.8-2.8,7.9-7.6,11.5-11.7,3.6-4.5,7.5-8.8,10.7-13.7-8.8,6.8-18.2,13.4-24.6,22.6m-303.6-16.7c.7,1.8,1.9,3.4,4.1,3.2.5-.6,1.5-1.9,2-2.6-1.3-2.5-4.2-2.4-6.1-.6m107.4.7c-46.3,1.6-91.3,21.4-125.1,52.9-6.3,6.6-13.2,12.7-18.9,19.9-11.9,14.7-22.3,30.5-31,47.3-17.7,34-29.6,71-34.7,109-.8,1.7-1,3.6-1.2,5.5-1.2,11.6-2.2,23.3-2.4,35-1.3,4.2-.8,8.7-.9,13-.2,3.7,1.5,7.2,1,10.9.3,12.3,1.4,24.6,2.6,36.9,1.9,8.4,2,17.1,3.7,25.6,1.8,7.1,1.9,14.5,3.9,21.6.9,4.6,1.5,9.2,2.2,13.8.4.3,1.3,1,1.7,1.3,4.9-7.1,9.4-14.4,14.5-21.5,2-3.3,4.5-6.3,6.1-9.7-.9-11.8-4.3-23.2-5.4-34.9-2.8-12.5-2.5-25.4-4.4-37.9-.8-10.4-.3-20.7-.5-31.1.3-9.8,1.9-19.4,2.7-29.1.4-6.6,2.3-12.9,3-19.4.8-5,2.7-9.6,3.3-14.6.5-4.8,2.7-9.1,3.7-13.8,5.7-18.8,12.5-37.5,22.2-54.7,9.4-17.7,20.7-34.7,34.7-49.2,6.5-7.9,14.7-14,22.6-20.4,39.1-29.9,91.1-41.9,139.4-32.9,6.5.7,12.6,3.1,18.9,4.3,6.4,2.2,12.7,4.5,19,6.9,23.7,9.7,45.1,24.6,62.8,43,13.4,14,25,29.7,34.5,46.6,13.1,22.1,22.4,46.3,28.7,71.2,2.3,6.3,2.1,13.2,4.2,19.5,1.3,7.8,2.1,15.7,2.6,23.6,1.6,5.5.1,11.3,1,17-.2,5.3-.4,10.7-.2,16-.1,2.3.7,5-1,6.9.1,12.1-1.1,24.1-2.2,36.1-1.9,8.9-2.2,18-3.5,27-1.7,7.1-2.5,14.4-3.6,21.6-.3,1.3.7,2.4,1.3,3.6,6.6,10.1,13,20.3,20.2,30,2.5-7.7,2.9-15.88,4.6-23.7,1.1-7.1,1.5-14.4,2.9-21.4,1.5-9,1.6-18.1,3.3-27,1.2-15,2.1-30.1,2.3-45.1,1.4-5.2.6-10.6.8-15.9-.1-2.5.4-5.1-.8-7.4-.1-9.2-1-18.4-2-27.6-2.7-15.7-5.6-31.5-10.4-46.7-5.5-18.8-13.3-36.8-22.1-54.2-6.9-13.8-15.5-26.5-24.4-39.1-7.3-9.7-14.9-19.3-23.7-27.7-23.6-24-53.3-41.8-85.2-52.2-5.4-1.2-10.5-3.6-16.1-4.2-11.1-2.8-22.6-3.9-34-4.4-4.9-1.6-10-.7-15-.9-2.1-.3-3.9.1-5.7.7m-10.5,25.7c-7.1,1.7-14.5,1.7-21.4,4.2-6,1.2-11.9,3-17.6,5.2-24.2,9.4-46.9,23.5-64.7,42.5-9.7,9.2-17.5,20.1-24.9,31.2-15.7,24.4-27.3,51.3-34.9,79.2-1.7,5.1-2,10.6-4,15.7-1.4,10.6-4,21-4.9,31.7-.9,6-.6,12.1-1.7,18,.7,6.1-1.3,12.3-.2,18.4.6,3.2.3,6.4.2,9.6,1.5,11.6,1.5,23.4,3.4,35.1,1.7,7.7,1.9,15.6,3.2,23.4,1.6,5.4,2.1,11.1,3.2,16.6,3.4-4.6,5.8-9.8,9.4-14.1,10.5-16.4,22-32.1,32.3-48.6,10.1-14.1,18.9-29,29-43,20.1-30.2,40.3-60.4,60.6-90.4,1.9-2.8,3.9-5.5,5.5-8.5-4.9-.7-10.9-.5-13.8-5.4-2.9-5.9,1.1-11.8,3-17.3-4.6-3.8-11.6-5.8-13-12.3-.8-6.7,6-10.1,8.9-15.2-1.7-3.3-3.1-6.7-5.2-9.8-1.8-5.1,1.1-11.4,6.5-12.7,2.7-.8,5.1-2.1,7.5-3.5v-4.4c-1.9-4.5-1.5-10.6,2.7-13.8,4.8-3.2,10.5-.1,15.8-1.1,1.3-3.2,2.1-6.6,2.9-10,1-4.9,6.8-7.9,11.5-6.3,3.3,1.2,6.2,3.6,9.8,4.3,3.9-1.5,5.9-5.6,8.5-8.6,2.1-3,7-3.2,9.3-.4,2.7,3.1,4.8,6.6,7.4,9.8,3.3-1.5,6.4-3.3,9.8-4.8,4.2-1.9,9.6,0,11.8,4.1,1.2,4,2.4,8,3.4,12,5.2.7,10.4-1.4,15.4.5,1.9,1.9,4,3.9,4.2,6.7.2,4-.7,7.9-.8,11.8,2.9,2.7,7,3.5,10.6,4.9,1.5,1.7,3.4,3.4,3.3,5.9,1.1,5.9-3.3,10.5-5.8,15.3,2.4,2.8,4.6,5.7,7.6,8,1.6,3.2,2.3,7.2.6,10.5-3.1,4.2-8.2,5.9-12.1,9.1,3.2,5.6,6,12.7,2.5,18.8-3.7,3.2-8.6,3.3-13.1,3.8,22.5,33.7,45.2,67.3,67.7,101,21,31,41.5,62.4,62.7,93.3,3,4.3,5.5,9.2,8.9,13.1,2.1-12.9,4.2-25.8,5.4-38.9,1.9-9.6,2-19.3,2.9-29,.3-7,.8-14,.8-21,1.8-6.2.5-12.7,1-19,.3-2.7-1.1-5.2-1.1-7.9-.4-14.8-2.6-29.5-6-43.9-9.8-41.4-29.5-80.6-57.3-113-22.4-25.1-51.5-44.3-83.6-54.3-4.8-1.6-9.9-2.2-14.6-4-12.1-1.6-24.1-4.3-36.4-3.8-7.4-.1-14.8.5-22.1,1.3m-255.8,19.1q.6.5,0,0m502.8,23.1c.5.8,1,1.7,1.5,2.5,9.5-7,18.8-14.2,27.9-21.6,1.7-1.4,3.2-2.9,4.7-4.6-11.3,7.9-22.9,15.6-34.1,23.7m-476.6-7.2c-.3,1.3.2,1.9,1.7,1.6.3-1.4-.3-1.9-1.7-1.6m249.9,1.1c-2.2,2.5-5.9,2.4-8.9,3-3.3.7-6.2-1.3-9.2-2.3-.5,2.2-.8,4.5-1.7,6.6-1.8,2.8-4.6,4.8-7.6,6.2-2.6,0-5.2,0-7.8.1.4,4.8-.1,10-3.6,13.7-2.2,1.7-4.9,2.8-7.3,4.2,2,3.5,3.9,7.2,3.2,11.4.5,4-2.8,6.8-5.5,9.2,2.7,1.5,5.6,3,7.2,5.7,3.3,4.3,3.1,10.6-.1,15,3.3.5,7.2.6,9.6,3.3,4.9,3.6,5.5,10.5,4.6,16.1-6,9.9-12.7,19.3-19.1,29-44.6,66.7-89.3,133.4-134,200-16.2,24.4-32.9,48.6-48.9,73.1-5.7,7.5-10.3,15.6-15.7,23.3-3.2,4.5-5.7,9.9-5,15.5,1.7,3.9,2.7,8.2,5.9,11.3,4.8,4.5,11.3,6.3,17.3,8.2,22.6,7.9,45.7,14.6,69,19.8,5.2,2,10.9,2.1,16.2,3.8,10.8,2.2,21.6,4.3,32.5,5.9,8.2,2.2,16.8,2.3,25.2,3.5,7.5,1.5,15.1,1.7,22.7,2.5,9.2.3,18.2,2,27.5,2,5-.3,10,.8,15,.4,23.2-.1,46.4.5,69.5-1.2,11.4-1.6,23-1.4,34.4-3.4,8.8-1.4,17.9-1.6,26.5-3.8,7.2-1.4,14.6-1.8,21.8-3.8,7.8-1.2,15.5-3.4,23.3-4.8,5.8-1.9,11.9-2.4,17.6-4.5,18-3.8,35.4-9.8,52.9-15.3,4.6-1.9,9.6-3.1,13.5-6.4,7.1-6,11.1-16,8.6-25.2-1.4-4.1-3.4-7.9-5.8-11.4-60.6-89.8-120.6-179.9-181-269.9-3.8-5.6-7.1-11.5-11.3-16.8-6.4-9.5-12.7-19.2-19.2-28.7-1.4-2.9-3.4-6.2-1.5-9.2.1-3.6.9-7.6,4-9.9,2.6-2.6,6.4-2.8,9.8-3.2-1.9-4-3.8-8.8-1.2-13,1.3-3.6,4.8-5.4,7.8-7.3.1-2.1-3.1-2.9-3.5-5.1-3.2-5.3-.9-11.4,1.9-16.4-2.6-1-5.1-2.3-7.5-3.8-1.2-2.2-2.6-4.3-3.4-6.7-.3-2.3.1-4.7.3-7.1h-8.4c-1.5-1.1-3.1-2.1-4.8-3.1-2.6-2.6-3.7-6.2-4.4-9.7-2.3.9-4.6,2.1-7.1,2.4-3.7-.1-7.3-1.2-10.7-2.5-.3-.5-1-1.6-1.3-2.2-.7.2-1.6.7-2.3,1.5m-213.9,8.2c-.6,1.2-1.1,2.5-1.7,3.7,3-.9,3.5-4.7,6.1-6.4-1.6.9-3,1.7-4.4,2.7m-7.7,20l2.1.5c-2.3,1.3-4.9,2.3-6.4,4.6-2.1.9-4.2,1.7-6.5,2.1,2.4-.3,4.8.3,7,1.3-2.8-2.7,2.2-3.6,3.7-5.2.1,2.1.3,4.1.6,6.2.9.7,1.8,1.3,2.7,2-2.6-3.9-1.3-8.6-.4-12.8-1.3-.3-2.2.2-2.8,1.3m4.5,11.8q.6.5,0,0m6.1,3q.5.6,0,0m-83.4,15.6v-1.5c-4.3-2-8.7-3.6-13.2-5,3.8,3.2,9,4.1,13.2,6.5m1.8-.9c.2.4.5,1.2.7,1.7,3.7,1.6,7.3,3.3,11.2,4.4-3.1-3.5-8-4-11.9-6.1m557-.5c-.5,1.7-1,3.4-1.3,5.2,1.9,1.6,3.7-1.2,5.4-1.9-.2-1-.5-2.1-.7-3.1-.8,0-2.5-.1-3.4-.2m-8.7,1.9c.3.4,1,1.1,1.3,1.5,1.4-.2,2.8-.3,4-1.2-1.7-.2-3.5-.2-5.3-.3m15.3-.4c-.2,2-.3,4,.6,5.8,2.1-.8,4.1,0,5.9,1-.4,1.9-1,3.7-2.6,4.8-2,2.1,1.8,3.5,2.9,5-.5-3.4-.6-6.8.3-10.2-3.2-1-5.2-3.8-7.1-6.4m5,.3c1.7,4.2,7.3,4.7,10.1,1.4-3.4-.6-6.7-1-10.1-1.4m-27.8,1.4c.1,2.5,2.1,2.1,3.8,1.8.7,1.5,1.4,3,2,4.5,2.6-.7,6-1.1,7.1-4-2.8,0-6.6,1.7-7.9-1.8-1.6-.5-3.3-.8-5-.5m-527.8,3.4c3.4,2.9,8.1,3.4,12,5.6-.5-.8-.7-2-1.8-2.2-3.4-1.2-6.5-3.4-10.2-3.4m34.9,5.6c1.6,0,3.3.2,4.8-.2.4-1.2.7-2.4.6-3.7.5,0,1.4-.1,1.9-.2,0-.4,0-1.2-.1-1.6-2.4,1.7-5.2,3.2-7.2,5.7m512.7-6.1c0,4.1,2.5,7.6,4.7,10.8.3-4.2-2.3-7.6-4.7-10.8m13.5,8.6c.9-1.5,1.8-3.1,2.8-4.6,1.1-1.2,2-2.5,2.7-4-4.1-.2-7.9,4.8-5.5,8.6m-22.6-4.6c.6.5,1.3,1.1,1.9,1.6,1.2-1.2,2.2-2.6,2.9-4.1-1.6.8-3.2,1.7-4.8,2.5m-493.6-1.7c-.2.9-.6,2.6-.7,3.5-.7.1-2.1.2-2.8.2.6,1.4,1.2,2.8,1.8,4.2.3-2.6,3.3-5.5,1.7-7.9m480.8,2.3c-.4,1.6-.8,3.2-1.3,4.9-.7.6-1.4,1.2-2.1,1.8.6,1.2,1.8,3,3.3,1.6,1.3-2.1.1-5.1,1.8-7.2.9-1.6,2.9-1.6,4.4-2.2-1.7-3-4.1.1-6.1,1.1m-502.2,2q.6.5,0,0m510.6-.3c.5.4,1.4,1.1,1.8,1.5.1.7.3,2,.4,2.7,1-1.2,1.9-2.4,2.9-3.6-1.7-.2-3.4-.4-5.1-.6m9.3.4c0,.6.1,1.9.1,2.6.5-.2,1.6-.5,2.2-.6.1-.4.3-1.3.3-1.7-.7-.1-2-.3-2.6-.3m-14.8,6.8c1.5-.8,3-1.7,4.4-2.5.1-.6.2-1.7.2-2.3-1.1-.5-2.1-1-3.2-1.4-1.6,1.7-2.2,3.9-1.4,6.2m11.9-5.7c-1.8.9-.5,4,1.3,2.6.4-.9-.3-2.6-1.3-2.6m-3,4c-.3,1.2.6,2.4,1.3,3.2,1.1.2,1.5-1.6,1-2.4-.6-.7-1.4-.9-2.3-.8m6,.7c-.3.8-.6,1.6-.8,2.5,1.6-.7,3.2-1.5,4.9-2.3-1.4-.1-2.7-.1-4.1-.2m6,1.3c0,.5.1,1.5.1,2,1.5.4,2.9.8,4.4,1.1.7-.6,1.4-1.2,2.1-1.7-.5-.9-.9-1.9-1.3-2.8-1.7.5-3.5.9-5.3,1.4m-19.6,1.7c1.2,1.6,2.7,3.6,5,3.4,2-1.2.5-3.6.1-5.3-1.8.3-3.5.9-5.1,1.9m9.7,2.5c.8,1.7,1.5,3.3,2.3,5-1,.9-2.3,1.8-1.3,3.3,3.4.8,3.3-3.9,3.1-6.2,1.7-1.2,3.2-2.5,4.5-4-3.1-.6-5.9.8-8.6,1.9m-14.1,1.5c.5,1.6,2.6,2.2,3.9.9.4.3,1.1.9,1.5,1.2,1.3.5,2.6,1,3.8,1.7,2.2-.6,5.1-.8,4.6-4-1.4.7-2.8,1.4-4.2,2.2-2.7-.4-5.3-1.5-6.4-4.2-1.3.4-2.6.9-3.2,2.2m23.4-.9c-1.1.7-2.8,2-2.5,3.5,1.5.5,4.4-2.7,2.5-3.5m-514.9,7.4c1.5-.1,3-.3,4.5-.5-1.1-1.6-4.2-1.8-4.5.5m-9.8.5c1.2.6,2.4,1.1,3.7,1.6.1-.7.2-2.1.3-2.7-1.3.4-2.7.8-4,1.1m7,1.7c.7,1,1.7,1.3,2.8.9,1.4-2.1-3.2-3.6-2.8-.9m4.7,1.7c1.5,1.7,3.7,2.5,5.7,3.4-1-1.6-2.1-3.1-3.2-4.7-.6.3-1.9,1-2.5,1.3m-90.1,39.8c3.9,2.3,8.7,2,13,3.3,5,1.7,10.4,1.7,15.5,3.5,7.2,1.8,14.7,2.1,21.8,4.5-.1-1.5-.3-3-.5-4.4-7.8-1.1-15.6-1.9-23.3-3.6-9-.8-17.6-3.4-26.5-3.3m581.1,20.5c-1.9.4-3.7.7-5.6,1,.9,5.3,2.4,10.6,2.4,16.1h1.1c-.1-3.1.5-6.1,1.1-9.1,3-2.2,6.9-2.9,9.8-5.3.7-1.2-.2-2.3-.5-3.4-1.3,1.2-3.1,1.5-3.8-.6-1.4.4-3,.8-4.5,1.3m16.6,40.6c-.9,1.2-.7,2,.6,2.1,1-1.2.8-1.9-.6-2.1m0,8c-.4,1.2.3,2.7,1.3,3.4,1.7-.4.3-4-1.3-3.4m36.5,9.4c1.4.5,2.9.7,4.3,1,.3-3.1-2.8-1.9-4.3-1m-41.8,11.8c2.5.2,5.7-1.2,7.4,1.4-.8-1-1.2-2.3-2.3-3-1.9-.2-3.4,1-5.1,1.6m-.6,5.3c.5.4,1.4,1.3,1.9,1.7.9-.2,1.8-.5,2.7-.7-.8-1-1-3.8-2.9-2.8-.4.4-1.2,1.3-1.7,1.8m3.7,6c1.7,1.1,3.6,2.5,5.8,2.3-1-1-1.8-2.2-2.7-3.4-1.1-1-3.6-.9-3.1,1.1m1.8,23.3c2,.6,4.6,2.3,2.5,4.4.3.5,1,1.6,1.4,2.1h1.8c.5-2,2-2.8,4-2.5-.1.9-.2,2.9-.3,3.8,2.8.3,7.5,1.5,7.9-2.5-2.2-.6-4.2-2-6.2-3.1-1.7-.2-3.3-.1-5-.1-1.8-1.3-3.7-3.6-6.1-2.1m19.6,5.9c-.3.6-.9,1.8-1.1,2.4.7.7,1.4,1.5,2.1,2.2-.6.1-1.8.4-2.4.5,0,.7.1,2.1.2,2.8,4.8-.7,10,.5,14.3-2.4-3.6-2.1-7.4-4.2-11.7-4.4-.4-.3-1.1-.8-1.4-1.1m-18.1,5.4c0,.8-.1,2.3-.1,3-1.5-.1-2.9-.2-4.3-.3,1.4.8,2.7,1.6,4.1,2.4,1.3-.8,2.6-1.6,3.9-2.4,3.9,2.2,8.7,1.2,12.2-1.1-2.2-2.7-5.5-3.3-8.7-3.8,1.8,2.5-.5,4.2-2.9,3.5-.5-1.1-1.1-2.3-1.6-3.4-.9.6-1.7,1.3-2.6,2.1m-13.6,43.5c-.5,2.9,3.5,3,5.4,2.2.7-2.4-.1-4.4-1.9-6-1.4,1.1-3.8,1.6-3.5,3.8m10.3,2c-.4,2.2,2,3.9,4,3.6,3-1.5,2.4-6.3-1.2-6.6-.9,1-2.1,1.9-2.8,3m-2.7,1.2c-1.3.8-1.4,1.5-.2,2.2,1.4-.9,1.4-1.6.2-2.2m-527.1,2.6c0,.7-.1,2.2-.1,2.9-5.2,2.3-9.4,6.2-14.2,9.1-2.5,1.9-5.7,3-7.3,5.8,8.5.4,17-.5,25.5.9-.7-2.1-1.1-4.7,1.3-5.9,1.5.1,3,.2,4.4.3.2-.7.5-2.2.7-2.9-1-.6-2-1.2-3-1.8.1-1.7.9-3.4.2-5-1.5-.8-2.9.3-4.2.9-1.1-.6-2.3-1.2-3.4-1.8.3-.6,1-1.7,1.3-2.2-.1-.1-.8-.2-1.2-.3m513.8,8.4c2.4-.7,4.2-4.9,6.9-2.8.1-.6.3-2,.5-2.6,1.2.5,2.3,1.1,3.5,1.6.8-.1,2.3-.3,3-.4.3.4.9,1.3,1.2,1.8.5-.3,1.4-.8,1.9-1.1,1.1,1.5,2.3,3.1,4.2,3.6-.2.7-.5,2.2-.6,2.9.8.4,2.3,1.1,3.1,1.4.1-5.6-5.6-9.3-10.5-10.5-5-1.4-12.2.4-13.2,6.1m2.7,3.3c5.2,1.2,10.5,1.3,15.6,2.6-1-1.8-1.6-4-3.6-4.8-4-1.8-8.8-.7-12,2.2m-.7,5c.3,1.4-.5,3.5.9,4.5s2.8,2.1,4,3.4c2.2.1,4.4.4,6.6.3,1.9-1.5,3.3-3.5,4.7-5.4-5.3-1.1-10.7-2.4-16.2-2.8" />
    <path class="d" d="m275.8,39.56h3.2c1.7,10,4.2,19.9,6.3,29.9-1.8.2-3.5.3-5.3.1-1.1-7-1.7-14.1-3.5-21-.4-3-.5-6-.7-9Z" />
    <path class="d" d="m212.3,99.36c2.4-1.6,5.5-1.3,8.2-.9,1.6.7,1.1,2.8,1.1,4.2-.7,3.1-4.2,3.3-6.6,4.5-4.5,1.7-8.4,5.3-13.5,4.8-1-1.7-1.3-3.5-1.5-5.4,3.6-3.4,8.2-4.9,12.3-7.2Z" />
    <path class="d" d="m345.5,349.66c2.1-2,5.1-1.7,7.7-1.8,6.7,3.2,8.3,11,8.9,17.7,7.1.3,14.9.3,20.8,4.7,1.9,1.9,1.6,5,2.3,7.4.3-1.5.6-3,1-4.5,6.4-1.5,12.8-3.3,18.6-6.3,2.6-1.1,4.6-3.3,7.6-3.3.2,1.1.6,2.1.6,3.3-4.6,11.7-11.7,22.5-20.8,31.2-5.3,3.4-11.4-.4-16.9-1.3,3.5,2.1,7.4,4,10.3,7.1,3.1,3.9,4.4,8.9,4.2,13.9-1.4,1.5-2.3,3.9-4.5,4.3-2.6.5-5.6.4-7.7-1.4-1.7-1.2-1.1-3.4-1.4-5.1,1.7-.8,3.6-1.1,5.5-1.4-1.1-4.3-4.4-7.6-8.5-9.3-5.4-3-11.8-2.4-17.7-3.7-2.8-.5-5.8-.4-8.6-.1-6.6,1.3-13.9.7-19.7,4.5-3.7,1.6-6.1,5-7.6,8.6,2.4.1,6.1,0,5.8,3.4-.5,5-8.3,6.3-11.5,2.9-2.8-2.1-1.6-5.9-1.6-8.8,1.1-7.4,7.7-11.8,13.9-14.9-5.6,1.1-12.1,4.9-17.2.7-8.8-7.9-15.1-18.3-19.8-29.1-1.1-2.2-.3-5.1,2.5-5,6.8,5.5,15.7,7.8,24.1,9.9-.1,1.8.4,3.3,1.4,4.6.1-2.8-.5-6.9,2.6-8.4,5.9-3.7,13.1-3.8,19.8-4,.4-5.5,1.3-11.9,5.9-15.8m-27.6,27.7c-.2,1.6-.3,3.3-1.7,4.3,1,1.1,2.1,2.2,3.2,3.4h4.5c.3-1.4.6-2.7.9-4.1-2-.4-3.9-.9-5.8-1.6-.3-.5-.8-1.5-1.1-2m58.8,3.7c.1,1.3.1,2.6.2,3.9,2.3-.1,5.2.9,6.7-1.4,1.5-1.5.3-3.6.4-5.4-2.2,1.5-4.6,2.6-7.3,2.9Z" />
    <path class="d" d="m344.8,406.76c4,.5,8.5-1,12.2,1.1-.1,4.6-1.1,9.2-.5,13.9.3,2.7.4,5.5.5,8.2,1.5-4.6,2.2-9.5,3.4-14.2,1.6-2.5,4.8-1.5,7.1-.8.9,3.3.9,6.8,1.5,10.1,2.2,10,1,20.7,4.3,30.4,0-11.2-3.3-22.4-2.4-33.7.7-.5,2.2-1.7,2.9-2.2,1.1.6,2.1,1.3,3.1,2.1.7,7,.9,14,1.7,21,1.7,6.7,1.6,13.8,3.7,20.5,4.2,15.7,10.1,31.4,20.5,44.2,4.7,5.7,9.6,11.8,16.8,14.3-3.4-2.5-4.4-7-2.9-10.9,2.9-2.7,7-2.3,10.6-1.7-2-1.8-3.8-4.4-6.7-4.7-2-.2-4-.2-6,.1-2.6.7-4.5,2.7-7.1,3.5-2.4-.1-1.9-2.6-1.4-4.1,2.1-1.5,4.4-2.9,6.7-4.1-8.1-2.6-16.4-6-21.9-12.9,0-.8.1-2.5.2-3.3,1.5.3,3.4-.2,4.5,1,6.6,6.1,15.8,7.6,24.2,10.1,6,2,10.9,6.3,14.4,11.5,2.4,3.1,2.6,7.2,3.5,10.8-.2,5.3-3,10.6-8.2,12.4,5.5.1,11.5.8,15.7,4.7,3.5,4,4.9,9.4,4.5,14.6.3,6.3-4.1,12.2-10,14.2-6.7,2.2-14.1,1.1-20.3-2.2-10.6-4.4-17.3-14.1-23.7-23.2-6.8-10.2-13-20.8-18-31.9-2.6-6.9-5.3-13.8-7.3-20.8-.6-2.6-.8-5.3-2.1-7.6-2-9-3.5-18.1-5.2-27.2-1.3,5-2.4,10.5-.2,15.4,3.9,19.1,8.9,38,16.2,56.1,5.5,12.4,11.3,24.8,18.9,36.2,6,7.3,13,14.1,21.5,18.4,2,.7,1,3.2,1.2,4.7-.5,4.3-.6,8.8-2.4,12.8-1.6.3-3.1-.9-4.4-1.7-9.9-8.8-19.4-18.5-26.3-30-9.9-18.5-18.7-37.8-25.2-57.8-2-4.7-2.1-9.9-4.3-14.6-1.7,16.1-4,32.2-4.4,48.4,1.3,3.4,2.6,6.8,3.4,10.3,7.6-1.8,14.1,5.9,13.9,13,.5.2,1.6.7,2.1.9.9,1.5,1.8,3,2.7,4.5,0,1.8,0,3.7.1,5.5-1.6,3.3-4.6,6.2-8.4,6.5-3.1-.1-6.5-1.9-7.8-4.8-.2-2.3-.6-5,1-7,1.3-.9,3-.5,4.4-.7.8,1.4,1.7,2.7,2.6,4.1.9-3.4-1.7-5.3-4.6-6.2-9.1,2.9-6.5,18.3,2.5,19.3,3.4-1.1,6-3.5,8.1-6.3.9-1.6,2.9-1.6,4.4-1.8.9,7.2-6.2,12.7-12.8,13.3-2.6-.3-5.1-.7-7.6-1.3,1.2,1.7,2.5,3.4,3.8,5,1.3,0,2.7,0,4-.1,1.9-1.1,3.1-3.8,5.7-3,3.1,1.2,0,4.1-.8,5.9-3.1,1.9-6.6,2.9-10.2,3,0,6.3-1.5,13.1-6.7,17.3-2.7,0-5.7.6-7.9-1.4-3.4-4.6-4.8-10.4-5-16-4.3-.1-9.5-1.3-11.6-5.5-.8-1-.9-2.7.6-3.1,2.6-1,4.2,1.5,5.9,3,1.7-.2,3.8.5,5-1.1,1.1-1.2,1.9-2.7,2.9-4-3,.7-6,1.8-9.1,1.2-6.1-1.1-11.8-6.5-11.3-13,5.2-1.1,5.8,5.6,10,6.9,2.5,1.2,5.3.4,7.7-.9,2.7-4.1,3.5-9.3,2.1-14.1-1.1-1.7-3.3-2.1-5-3.1-1.7.9-3.7,1.6-4.9,3.2-.1,1.1.9,1.7,1.5,2.5.2-2.9,2.6-3.8,5.2-3.9,2.9,2.7,2.7,6.7.9,9.9-2,1-3.9,2.5-6.2,2.9-4.1.1-7.8-3.1-8.9-6.9-.8-4.1,1.1-8.2,4.3-10.7,1.2-.7,1.1-2,1.2-3.2-.1-3.1,2.5-5.2,4.1-7.6,2.8-1.7,6-2.4,9.2-2,.3-3.7,1.9-7,3.3-10.3-.5-7-.8-14.1-1.4-21.1-1.7-9-1.8-18.2-3-27.2-2,4.1-2,8.8-4,13-3.5,11.2-7.8,22-12.4,32.8-6.3,12.6-11.5,26.2-20.7,37.1-2.1,2.9-4.8,5.2-7,8.1-3.3,4.4-8,7.3-11.7,11.2-1.4.8-3.4,2.8-4.9,1.2-1.2-4-1.8-8.2-1.8-12.4-.4-.5-1.2-1.4-1.6-1.8,1-1.2,2-2.3,3.4-3,6.1-3.6,11.7-8,16.6-13.2,7.3-8.1,11.6-18.1,16.8-27.6,8-16.4,14.2-33.6,18.1-51.5.6-3.6,2-7.1,2.7-10.7.8-3.8,1.1-7.8,2.3-11.5,1.3-3.5-.8-7.1-1.6-10.5-1.9,15.3-5.8,30.2-10.3,44.9-2.4,5.1-3.9,10.5-6.5,15.5-3.7,7.2-7.7,14.1-12.1,20.9-5.6,8.4-10.9,17.4-19,23.7-7.6,5.7-17.3,9.6-26.8,7.4-3.8-.5-6.6-3.4-9-6.1-2.5-2.8-1.5-6.9-3-10.1,1.4-2.7.7-6,2.1-8.7,3.1-7.1,12-10.3,19.2-8.3-1.8-1.2-3.6-2.5-5.5-3.7-2-3.7-4.5-7.9-3-12.3,1.9-9.5,9.7-17.2,18.8-20.1,7.9-2.1,16.5-3.7,22.8-9.3,1.1-1.3,2.9-.7,4.4-1,.6,5-4.3,7.9-7.9,10.2-4,2.8-8.9,3.8-13.4,5.8,2.3,1.3,4.6,2.7,6.8,4.3v3.7c-4.3.1-7.2-4.5-11.8-3.6-4.3-.7-7.5,2.2-10,5.3,1.9-.4,3.8-.9,5.6-1.8,3.1.9,5.8,3,6.5,6.3-.5,2.9-1.8,5.7-4,7.7,6.4-2.4,10.8-7.8,15.4-12.5,11.7-14.2,18.5-31.8,22.7-49.6,1.8-6.6,2-13.5,3.2-20.2,1-5.9.6-11.9,1.3-17.9,1.1-.7,2.1-1.4,3.2-2.1,1,.8,2,1.6,3.1,2.4.3,5.9-1.4,11.7-1.4,17.7-.3,7.5-1.1,15.1-3.4,22.3-.5,3-2.5,6.7-.2,9.4,1.4-6.1,2.5-12.4,3.1-18.6,2.9-11.5,2.6-23.5,4.3-35.1.1-4.5,8.7-4.6,8.6,0,.6,4.1,1.5,8.1,2.9,12,.9-7.5.4-15.1.8-22.7m5.5,35.7c.2,4.1-1.5,8-1.3,12.1-1.2,6.3.4,12.6,1.2,18.9.2.3.7.8.9,1.1-.1-7,3.2-14,.9-20.9-1-3.7.5-8.1-1.7-11.2m23,14.5c.5,3.8,1,7.6,1.9,11.4.5.4,1.4,1.2,1.9,1.6-.6-4.5-1.7-8.8-2.9-13.1-.2,0-.7.1-.9.1m2.5,12.4c3.3,19.6,11.6,38.2,22.7,54.6,3.3,5.6,7.1,10.9,11.1,16,5.1,6.6,12.3,11.6,20.2,14.2,1.2.5,2.4-.5,3.4-1,4.4-2.4,4.1-8.9,1.2-12.3-2.9-2.4-6.5-.4-8.9,1.7-.7,0-2.2.1-2.9.1-1-1-2-2.1-3-3.1.2-4.6,3.8-8.4,8.1-9.6-5.9.8-11.5-1.7-16-5.4-3.4-3-7-5.8-9.6-9.5-10.8-11.2-18.4-25.1-22.8-40-1.1-1.8-1.2-4.7-3.5-5.7m-52.3,2.9c-.9,1-1,2.6-1.5,3.8-4.4,13.6-11.3,26.4-20.8,37.1-2.1,2-4.1,4-5.9,6.3-5.7,5.8-12.9,11.9-21.6,10.3,4.2,1.4,8.9,5.5,7.4,10.4-.9,3.3-5,2.9-7.1,1s-4.9-1.5-7.2-.5c-1.1,2.7-2.9,5.7-1.5,8.7.5,2.7,3.2,3.7,5.2,5,15.2-4.1,24.7-17.8,32.4-30.6,10.3-14.9,17.5-31.8,21.7-49.4,1.5-.4-.1-3.5-1.1-2.1m11.9,86.2c3.7-.1,8.5-.7,10.8,3,.5.1,1.7.4,2.2.5-1.2-2-2.2-4.1-3.2-6.2-3.5-.5-6.8.8-9.8,2.7m20.5-2.8c-.7,2.2-1.7,4.2-3,6.1.5-.1,1.6-.4,2.2-.5,2.1-3.3,6.3-2.9,9.8-3-2.5-2.1-5.8-2.9-9-2.6m-6,11.8c.2,2.9.4,5.7.2,8.6-.7,1.4-1.2,2.9-1.6,4.4,1.4.1,2.7.2,4.1.3-1.6-4-.9-8.4-1.3-12.6-.4-.2-1.1-.5-1.4-.7m-.3,21.9c-2.3,4.5-1.9,10.2-.9,15.1.2,1.2,1.1,4.1,2.8,2.5,2.2-4.8,2.3-10.3,1.2-15.3-.3-1.2-1.8-4.3-3.1-2.3Z" />
    <path class="d" d="m248.5,450.56c3.5-2.9,6.8-6.3,11.1-8-7.5,15.9-11.7,32.9-15.6,49.9-.8,6.9-3.2,13.6-4,20.5-5.1,20.2-4.8,42.2,3.2,61.7,13.7,35.5,48.3,61,85.6,66.8,9.4,2.8,19.2,1.7,28.9,2,8.2.1,16.1-2.3,24.1-3.6,15.4-4.3,30.5-10.8,43-21,10.6-7.3,18.6-17.7,25.7-28.3,5.5-9.2,10-19.3,12-29.9,2.2-6.4,2.1-13.3,2.6-20-.2-7.6-.5-15.3-2.7-22.6-1.2-5-1.2-10.3-2.9-15.2-3.9-20.6-9-41.1-17.5-60.3,4.1,1.8,7.4,5.2,10.9,8,11.9,10.2,22,22.5,29.9,36,5.1,10,10.2,20.2,12.9,31.2,2.7,7,2.8,14.5,4.4,21.8.8,7,0,14.1.3,21.1.2,5.1-1.3,10.1-1.9,15.1-.5,3.8-1,7.6-2.4,11.1-7.4,28.5-24.9,54-47.8,72.4-17.5,13.9-38.2,23.8-59.9,29-7,2.1-14.4,2.4-21.6,3.9-13.2.7-26.6,1.4-39.6-1.3-25.1-3.1-49-13.6-69.5-28.2-10.7-8.2-20.4-17.7-28.8-28.2-9.9-13.4-17.9-28.3-22.5-44.4-2.6-6.5-2.6-13.7-4.5-20.4-.7-5.3-.5-10.7-1.1-16.1.6-7.4.2-15,2.2-22.2,2.2-16.5,8.5-32.3,17-46.6,7.1-13.1,17.7-24,28.5-34.2m-13.3,30.7c-6,11.5-9.6,24-11.9,36.6-3.4,11.6-2.9,23.8-2.9,35.8,2.8,35.6,23.9,67.9,52.1,89,8.1,6.5,17.5,10.9,26.8,15.3,5.6,2.4,11.4,4.6,17.3,6,8.6,3.2,18,2.9,26.9,4.8,6-.7,12.3,1,18.2-.9,13.7-.4,26.9-4.6,39.6-9.5,15.4-6.8,30.2-15.8,41.8-28.2,8.6-7.9,15.8-17.3,21.8-27.3,10.5-17.8,17.1-38.4,16.3-59.3.1-15-3.7-29.6-7.5-43.9-2-5.8-4.2-11.6-6.7-17.3-.8-1.8-2.5-3.2-4.2-4,2,5.1,2.5,10.7,4,16,1.8,6.9,2.5,14,4.2,20.9,1.3,7.5,1.6,15.1,2.1,22.7.5,18-3.3,36.3-12.3,52-6.1,11.6-14.2,22.3-24.3,30.7-14.4,13.4-32.6,22.3-51.6,27.2-14.4,4.2-29.5,3.9-44.3,3.8-22.6-1.3-44.8-8.7-63.6-21.3-21.1-14.3-37.7-35.7-44.6-60.4-2.6-6.8-3.4-14.1-3.6-21.3-1.9-5.7-.9-12.1.1-17.9.5-8.2,1.2-16.5,3.5-24.4,1.2-9.5,4.4-18.6,6.1-28.1-1.3.9-2.5,1.8-3.3,3Z" />
  </g>
  <g>
    <path class="c" d="m100.55,681.93l3.41,7.69c.32.72.6,1.13.84,1.24.4.18.79-.17,1.18-1.03.44-.99.69-1.68.74-2.1.05-.41-.07-.79-.36-1.14-.23-.28-.37-.54-.42-.76-.05-.22,0-.47.11-.73.3-.66.93-.88,1.89-.67.4.08,1.04.33,1.94.73,1.16.52,1.92.95,2.3,1.29.6.54.77,1.11.5,1.72-.23.51-.69.76-1.38.76-.28,0-.47.02-.59.06-.12.04-.25.12-.38.25-.44.42-.99,1.35-1.64,2.79l-1.73,3.83c-.26.59-.62,1.39-1.07,2.41-.61,1.38-1.14,2.34-1.59,2.87-.55.67-1.09.88-1.64.63-.24-.11-.42-.25-.55-.43-.13-.18-.31-.54-.54-1.09l-4-9.3c-.28-.65-.57-1.05-.89-1.19-.47-.21-1,.34-1.59,1.67-.49,1.09-.77,1.86-.83,2.31-.06.45.05.86.33,1.21.4.49.5.94.31,1.36-.49,1.09-1.88,1.12-4.17.08-1.03-.47-1.77-.97-2.22-1.5-.44-.54-.55-1.06-.32-1.57.12-.27.26-.44.43-.53.17-.08.49-.16.97-.21.46-.06.85-.35,1.18-.87.59-.95,1.3-2.37,2.16-4.27.91-2.02,1.46-3.54,1.65-4.57.07-.37.07-.67.02-.9-.06-.22-.2-.48-.43-.76-.27-.33-.43-.6-.49-.83-.06-.22-.04-.45.07-.69.34-.75,1.18-.94,2.53-.57.46.13,1.22.44,2.29.92.61.28,1.04.53,1.27.75.23.22.47.59.69,1.11Z" />
    <path class="c" d="m118.55,688.83l6.23,2.28c.68.22,1.32.35,1.93.39.26.02.48.07.66.13.64.23,1.08.95,1.33,2.13.25,1.19.19,2.29-.19,3.32-.26.7-.65,1.14-1.19,1.31-.4.13-.83.11-1.27-.05-.42-.15-.74-.41-.96-.76-.22-.35-.38-.85-.48-1.51-.08-.59-.16-1-.26-1.2s-.25-.35-.46-.43c-.29-.11-.55-.06-.76.14-.22.2-.43.59-.64,1.16l-2.48,6.77c-.25.69-.37,1.22-.34,1.59s.21.71.54,1.02c.36.34.58.62.68.84.09.22.09.48-.02.77-.21.58-.75.87-1.63.87-.87,0-2.1-.29-3.7-.87-1.95-.72-3.34-1.41-4.17-2.09-.7-.57-.93-1.16-.71-1.77.12-.33.36-.54.71-.62.09-.01.4,0,.95.02.33.02.6-.07.81-.28.21-.21.47-.65.8-1.34.29-.6.73-1.6,1.3-2.99.57-1.39,1.04-2.59,1.42-3.63.27-.72.4-1.26.4-1.61s-.12-.57-.38-.66c-.31-.11-.69,0-1.15.35-.83.63-1.46,1.01-1.9,1.16-.52.17-.96.18-1.34.04-.43-.16-.72-.45-.87-.88-.16-.43-.14-.9.04-1.4.18-.5.5-1.01.94-1.53.44-.52.94-.96,1.5-1.34.9-.6,1.64-.8,2.23-.58.16.06.33.15.52.27.39.24.72.43.98.56s.57.26.92.39Z" />
    <path class="c" d="m134.92,705.18c-.3-.09-.53-.06-.67.1-.14.16-.32.59-.53,1.28-.32,1.04-.51,1.87-.56,2.5-.01.18.01.32.06.44.05.11.17.27.36.47.4.42.53.85.39,1.29-.17.54-.62.82-1.36.84-.74.02-1.91-.22-3.5-.71-2.97-.91-4.28-1.94-3.92-3.09.06-.2.15-.34.28-.43s.38-.2.75-.31c.43-.13.75-.34.98-.62.22-.29.48-.82.77-1.6.22-.57.88-2.65,1.98-6.24.35-1.14.53-1.93.55-2.38.01-.44-.14-.82-.45-1.12-.3-.28-.49-.51-.56-.69s-.08-.39,0-.62c.09-.3.29-.53.59-.69s.67-.22,1.11-.2c.37.02.86.12,1.46.3.27.08.91.33,1.95.73.2.08.51.18.94.32.72.22,1.7.47,2.93.74.78.18,1.32.31,1.63.41,1.72.53,3.01,1.39,3.87,2.58.78,1.07.96,2.29.54,3.64-.23.75-.62,1.39-1.16,1.9-.54.51-1.17.83-1.89.95-.3.05-.47.17-.53.35-.07.24.06.49.41.76.75.57,1.22,1.23,1.42,1.98.2.75.18,1.81-.05,3.16-.09.56-.1.95,0,1.15.09.2.36.45.81.75.14.1.23.24.29.43.06.19.05.39,0,.58-.08.25-.25.48-.52.68s-.58.33-.93.38c-.77.11-1.74-.01-2.92-.37-1.56-.48-2.55-1.25-2.97-2.3-.19-.47-.3-1.03-.34-1.67-.04-.64-.01-1.61.07-2.91.05-.84-.01-1.46-.2-1.87-.19-.41-.54-.71-1.06-.89Zm1.23-6.49l-1.01,2.83s-.02.06-.03.11c-.09.29-.11.5-.06.63.05.12.21.23.47.3.71.22,1.28.19,1.71-.09.44-.27.78-.82,1.03-1.64.49-1.58.18-2.54-.92-2.88-.31-.1-.56-.09-.73.02-.17.11-.33.35-.46.72Z" />
    <path class="c" d="m162.39,711.22l1.01,5.64c.1.52.2.87.31,1.06.11.18.31.34.6.46.56.24.78.62.64,1.14-.16.61-.63.95-1.41,1.03-.78.08-1.99-.09-3.62-.5-1.84-.47-3.18-.9-4.02-1.29-.39-.18-.67-.41-.85-.7-.18-.29-.23-.6-.15-.92.06-.25.18-.43.34-.53.16-.1.43-.17.8-.2.42-.03.67-.21.75-.53.14-.56-.1-.97-.73-1.24-.68-.28-1.67-.59-2.95-.92-1.08-.28-1.74-.38-1.99-.3-.15.05-.3.17-.46.36-.15.19-.26.39-.31.59-.05.18-.04.31.01.38.05.07.26.22.61.44.46.28.63.64.51,1.09-.25.99-1.54,1.19-3.86.59-1.32-.34-2.26-.68-2.83-1.02-.52-.32-.71-.78-.56-1.37.07-.26.18-.44.34-.55.16-.11.42-.18.78-.21.58-.05,1.05-.22,1.41-.5.36-.27.94-.91,1.73-1.91l2.71-3.41c1-1.25,1.69-2.2,2.09-2.84.4-.65.68-1.31.87-1.98.19-.71.36-1.2.51-1.46.15-.26.39-.49.73-.68.71-.44,1.5-.54,2.37-.32.82.21,1.52.74,2.1,1.59.81,1.17,1.65,4.17,2.52,9.01Zm-8.89-.61l2.39.62c.44.11.68.07.74-.13.07-.27-.06-1.03-.4-2.25-.15-.56-.28-.94-.38-1.15-.1-.2-.24-.33-.4-.37-.29-.08-.61.14-.95.65-.05.07-.25.33-.58.79-.56.76-.86,1.22-.9,1.39-.05.21.11.36.48.46Z" />
    <path class="c" d="m170.41,716.32c.78.18,1.39.61,1.84,1.29.45.69.58,1.48.38,2.37-.19.83-.64,1.46-1.35,1.9-.7.42-1.44.55-2.21.37-.78-.18-1.39-.61-1.84-1.29-.45-.7-.58-1.48-.39-2.33.2-.87.65-1.52,1.36-1.94.7-.41,1.43-.54,2.21-.37Z" />
    <path class="c" d="m190.84,708.14c.85.16,1.92.59,3.21,1.29.15.08.28.13.38.15.08.02.34-.01.79-.08.14-.02.29-.02.44,0,.55.11,1.05.67,1.49,1.68s.58,1.92.43,2.73c-.09.47-.31.84-.65,1.11-.34.27-.71.37-1.1.29-.33-.06-.58-.18-.76-.36-.18-.17-.56-.66-1.13-1.46-.81-1.13-1.69-1.79-2.64-1.98-.46-.09-.85-.05-1.17.13s-.52.45-.59.82c-.14.73.38,1.41,1.57,2.02,1.61.84,2.63,1.43,3.06,1.76,1.9,1.45,2.65,3.19,2.26,5.22-.35,1.79-1.35,3.12-3,3.98-1.69.88-3.72,1.09-6.09.63-1.05-.2-2.14-.55-3.26-1.03-1.12-.48-1.91-.95-2.36-1.39-.34-.35-.59-1-.73-1.97-.14-.97-.13-1.88.04-2.74.08-.41.22-.71.43-.89.26-.23.54-.31.86-.25.31.06.58.28.81.67.14.22.43.89.88,2.02.21.53.62,1.02,1.22,1.46.6.44,1.26.73,1.97.87.61.12,1.13.1,1.55-.06s.67-.42.74-.78c.07-.34-.03-.66-.28-.96s-.69-.62-1.31-.96c-1.1-.61-1.94-1.13-2.49-1.56-.56-.44-1.06-.95-1.5-1.53-1.07-1.43-1.47-2.9-1.17-4.4.14-.74.45-1.43.93-2.07s1.07-1.15,1.79-1.55c1.61-.92,3.42-1.19,5.41-.8Z" />
    <path class="c" d="m205.86,721.57c-.31-.05-.53.01-.65.19s-.24.63-.35,1.34c-.18,1.08-.25,1.92-.22,2.55.01.18.05.32.12.42.07.11.21.25.42.42.45.36.64.77.56,1.23-.09.56-.5.9-1.23,1.02-.73.12-1.92.04-3.57-.23-3.06-.51-4.5-1.35-4.3-2.54.03-.2.11-.36.22-.47s.35-.25.71-.41c.4-.19.7-.43.88-.75.18-.31.37-.88.55-1.69.14-.59.52-2.75,1.13-6.45.19-1.18.27-1.99.22-2.43-.05-.44-.24-.79-.59-1.05-.34-.24-.55-.44-.65-.61s-.13-.37-.09-.61c.05-.31.21-.57.49-.76.27-.19.63-.31,1.07-.35.37-.03.87,0,1.49.1.27.04.95.2,2.03.47.2.05.53.11.98.19.75.12,1.75.24,3.01.34.8.07,1.35.13,1.67.18,1.77.29,3.17.97,4.18,2.03.91.96,1.25,2.14,1.02,3.54-.13.78-.43,1.46-.9,2.04-.47.58-1.05.98-1.74,1.19-.29.09-.45.23-.48.42-.04.25.13.48.51.7.82.47,1.37,1.06,1.67,1.78.3.72.42,1.77.37,3.14-.02.57.03.95.14,1.14.11.19.41.4.9.64.15.08.26.21.34.39.08.18.1.38.07.58-.04.26-.19.51-.43.74-.24.23-.53.4-.87.5-.75.21-1.73.22-2.94.02-1.61-.27-2.7-.89-3.25-1.88-.25-.44-.44-.98-.56-1.61s-.23-1.59-.32-2.9c-.06-.84-.21-1.44-.45-1.82s-.63-.63-1.17-.74Zm.35-6.6l-.63,2.94s-.01.06-.02.11c-.05.31-.04.52.03.63s.24.2.5.24c.73.12,1.29.02,1.69-.32.4-.33.66-.92.8-1.77.27-1.63-.16-2.54-1.3-2.73-.32-.05-.56-.01-.72.12s-.28.39-.36.78Z" />
    <path class="c" d="m233.87,724.19l1.65,5.49c.16.51.3.84.43,1.01.13.17.34.3.65.39.59.17.84.53.77,1.05-.08.62-.51,1.02-1.28,1.19-.77.17-1.99.14-3.65-.08-1.88-.26-3.26-.53-4.15-.81-.41-.13-.71-.33-.93-.6-.21-.27-.3-.57-.25-.9.03-.25.13-.44.27-.57s.4-.22.77-.29c.41-.08.64-.29.68-.61.08-.57-.21-.95-.87-1.15-.71-.2-1.72-.39-3.04-.57-1.11-.15-1.78-.17-2.01-.07-.15.07-.28.2-.41.41-.13.21-.21.41-.24.62-.03.19,0,.31.06.38.06.06.28.19.66.37.49.22.7.56.64,1.02-.14,1.01-1.39,1.36-3.76,1.03-1.35-.18-2.32-.41-2.93-.69-.56-.26-.8-.69-.71-1.29.04-.26.13-.46.28-.59.15-.13.4-.23.75-.3.57-.12,1.01-.34,1.34-.66.33-.31.83-1.01,1.5-2.1l2.3-3.7c.85-1.36,1.43-2.38,1.75-3.07.32-.69.53-1.38.63-2.06.11-.73.22-1.23.34-1.51.12-.27.33-.53.64-.76.65-.52,1.43-.71,2.32-.59.84.11,1.6.56,2.27,1.33.94,1.06,2.12,3.95,3.55,8.66Zm-8.9.42l2.45.33c.45.06.69,0,.72-.21.04-.28-.18-1.01-.65-2.19-.21-.54-.38-.91-.51-1.1-.13-.19-.27-.3-.44-.32-.3-.04-.59.21-.87.75-.04.07-.21.36-.49.86-.47.82-.71,1.31-.74,1.48-.03.21.15.34.53.4Z" />
    <path class="c" d="m242.37,728.4c.79.09,1.45.45,1.96,1.08.53.64.73,1.41.63,2.32-.1.84-.48,1.52-1.14,2.03-.65.49-1.37.7-2.16.6s-1.45-.45-1.96-1.08c-.52-.65-.74-1.41-.63-2.28.1-.89.48-1.58,1.14-2.07.65-.49,1.37-.69,2.16-.6Z" />
    <path class="c" d="m271.18,723.42l-6.85,11.38c-.42.7-.8,1.18-1.14,1.43s-.76.35-1.24.31c-.4-.04-.75-.16-1.05-.37-.23-.16-.41-.34-.53-.53-.12-.2-.26-.54-.43-1.04l-4.06-12.02c-.22-.68-.44-1.14-.65-1.4-.21-.26-.52-.44-.94-.56-.49-.14-.71-.48-.67-1.02.06-.66.55-1.12,1.46-1.4.91-.27,2.18-.33,3.82-.18,1.71.16,2.95.41,3.73.74.78.34,1.14.79,1.09,1.34-.03.36-.28.67-.74.94-.36.2-.54.4-.56.61-.02.19.03.46.15.83l1.23,3.76c.18.55.41.84.69.87.28.03.54-.09.78-.35.24-.26.59-.79,1.03-1.58.8-1.43,1.26-2.27,1.4-2.53s.21-.46.22-.61c.03-.29-.15-.56-.52-.8-.41-.27-.6-.59-.57-.94.09-1.02,1.47-1.4,4.14-1.16,1.33.12,2.26.32,2.78.59.53.27.77.67.72,1.2-.06.63-.45.96-1.18.99-.52.01-.85.07-1.01.17-.29.17-.65.63-1.09,1.36Z" />
    <path class="c" d="m280.14,719.82c.95.07,1.85.22,2.68.46,1.12.32,1.65.85,1.6,1.6-.02.25-.09.43-.21.55-.12.12-.42.28-.9.48-.4.17-.69.58-.86,1.24s-.33,1.96-.47,3.89c-.24,3.27-.31,5.3-.21,6.09.04.25.12.45.23.59s.31.3.6.48c.53.3.78.69.75,1.18-.05.68-.6,1.12-1.64,1.3-1.13.19-2.49.23-4.09.11-2.73-.2-4.05-.83-3.98-1.9.03-.39.32-.72.88-1.02.43-.23.7-.56.81-1,.23-.96.47-3.03.7-6.2.16-2.19.16-3.6-.01-4.23-.09-.36-.35-.7-.77-1.01-.33-.26-.54-.47-.65-.63-.11-.16-.15-.36-.13-.6.03-.37.22-.65.59-.84s.99-.34,1.88-.45c1.06-.14,2.13-.16,3.2-.08Z" />
    <path class="c" d="m292.85,731.14c-.32-.02-.53.07-.63.26-.1.19-.17.65-.21,1.37-.06,1.09-.04,1.94.05,2.56.03.17.09.31.17.41.08.1.23.22.46.38.49.31.72.7.69,1.16-.03.57-.41.95-1.12,1.14-.71.2-1.9.25-3.57.15-3.1-.18-4.62-.87-4.55-2.07.01-.21.07-.37.17-.49.1-.12.32-.28.66-.48.38-.23.65-.51.8-.84s.27-.91.37-1.74c.08-.61.22-2.79.44-6.54.07-1.19.06-2-.04-2.44-.09-.44-.33-.76-.7-.98-.36-.2-.6-.38-.71-.54-.12-.16-.17-.36-.15-.6.02-.32.15-.59.41-.81s.6-.38,1.03-.46c.37-.07.86-.09,1.49-.06.28.02.97.1,2.07.25.21.03.54.06.99.08.75.04,1.76.05,3.03.02.8-.01,1.36-.01,1.68,0,1.79.1,3.25.63,4.37,1.58,1.01.86,1.47,1.99,1.39,3.41-.05.79-.27,1.5-.68,2.12-.41.63-.94,1.08-1.6,1.37-.28.12-.42.28-.43.46-.01.25.18.46.58.64.86.38,1.48.91,1.85,1.59.37.68.61,1.71.71,3.08.04.57.13.94.26,1.12.13.18.45.36.97.54.16.06.28.18.38.35.1.17.14.36.13.57-.02.27-.13.53-.35.79-.22.26-.49.46-.82.59-.72.29-1.7.41-2.92.33-1.63-.09-2.78-.6-3.43-1.53-.3-.41-.54-.92-.73-1.54-.19-.61-.4-1.56-.62-2.85-.15-.82-.36-1.41-.64-1.76-.28-.35-.69-.56-1.25-.61Zm-.35-6.6l-.31,2.99s0,.06,0,.12c-.02.31.01.52.1.62.08.11.26.17.53.19.74.04,1.29-.12,1.64-.49.36-.37.56-.98.61-1.84.1-1.65-.43-2.51-1.58-2.58-.33-.02-.56.05-.7.19-.14.15-.23.42-.27.81Z" />
    <path class="c" d="m314.07,721.6c1.1.04,2.13.24,3.09.59.43.16.73.25.89.25.17,0,.52-.08,1.07-.26.18-.05.36-.08.54-.07.47.02.91.32,1.32.9.65.93.96,1.94.92,3.02-.03.74-.23,1.33-.61,1.77-.38.44-.87.65-1.47.63-.49-.02-.96-.22-1.41-.59-.14-.12-.47-.53-1-1.25-.88-1.19-1.92-1.81-3.12-1.85-1.09-.04-1.97.33-2.64,1.13-.67.79-1.03,1.88-1.08,3.26-.08,2.05.37,3.81,1.34,5.29.37.54.81.97,1.34,1.3s1.05.51,1.58.53c.44.02.8-.12,1.09-.4.29-.29.45-.66.46-1.12.02-.41-.09-.71-.32-.89-.09-.07-.17-.12-.25-.13-.08-.02-.32-.03-.72-.05-.36-.01-.66-.14-.89-.39-.23-.24-.34-.55-.33-.91.03-.71.51-1.2,1.44-1.47,1.03-.29,2.2-.41,3.53-.36,1.42.05,2.6.25,3.56.58.9.33,1.34.87,1.31,1.63-.01.31-.13.57-.34.79-.22.22-.5.34-.83.38-.29.03-.49.09-.58.18s-.19.3-.29.65c-.41,1.35-1.16,2.46-2.24,3.34-.74.6-1.63,1.06-2.67,1.37-1.03.31-2.11.45-3.23.41-1.84-.07-3.51-.56-5.01-1.49-1.54-.94-2.7-2.22-3.46-3.84-.64-1.35-.93-2.79-.87-4.32.06-1.55.52-3.01,1.4-4.38.93-1.47,2.19-2.58,3.79-3.34,1.39-.67,2.97-.97,4.72-.91Z" />
    <path class="c" d="m327.27,722.37l6.47.11c1.31.02,2.26.01,2.87-.03.6-.05,1.19-.15,1.76-.31.18-.05.32-.07.42-.07.44,0,.82.25,1.15.74.54.79.8,1.74.78,2.85,0,.56-.13,1-.37,1.31s-.56.47-.96.47c-.28,0-.49-.07-.64-.18-.15-.12-.36-.38-.61-.79-.36-.58-.82-.97-1.38-1.18-.56-.2-1.49-.32-2.78-.34-.97-.02-1.56.15-1.77.5-.11.19-.18.44-.21.76s-.05,1.13-.07,2.43c0,.51.07.84.24.96.17.13.6.2,1.32.21.35,0,.61-.06.77-.21s.27-.41.32-.8c.07-.5.13-.84.2-1.02.07-.18.19-.34.36-.48.18-.15.39-.23.62-.22.34,0,.63.18.87.52.17.25.31.69.42,1.33s.16,1.29.15,1.98c-.02,1.36-.25,2.46-.67,3.32-.24.47-.58.7-1.04.69-.29,0-.48-.08-.59-.24-.11-.15-.19-.46-.24-.94-.11-.97-.65-1.47-1.64-1.48-.38,0-.64.11-.78.35-.14.24-.22.69-.23,1.35,0,.4.01.93.05,1.57.04.64.09,1.06.15,1.27.06.26.27.44.61.54s.93.16,1.74.18c1.26.02,2.21-.13,2.85-.45.64-.32,1.17-.91,1.59-1.77.24-.49.46-.82.65-.99.19-.17.44-.25.74-.25.35,0,.64.17.87.49.22.32.33.71.33,1.18,0,.51-.15,1.16-.42,1.92-.27.77-.6,1.45-.99,2.04-.2.29-.36.48-.49.58-.13.1-.29.14-.48.14-.16,0-.39-.03-.69-.09-.54-.11-1.25-.19-2.15-.23l-10.68-.18c-.43,0-.76-.11-.99-.31s-.34-.47-.34-.82c0-.25.06-.43.16-.54.1-.11.34-.25.7-.41.25-.11.44-.24.57-.4.12-.16.22-.4.3-.72.3-1.29.47-3.03.51-5.23.06-3.31-.11-5.4-.5-6.28-.08-.17-.17-.29-.27-.37s-.31-.16-.63-.25c-.48-.15-.71-.48-.7-.99,0-.27.09-.52.25-.73.16-.21.38-.35.64-.41.33-.07.96-.1,1.9-.08Z" />
    <path class="c" d="m349.23,723.25l6.3,5.58c.59.52,1.01.78,1.28.78.44,0,.65-.48.65-1.43,0-1.08-.07-1.82-.2-2.21-.13-.39-.39-.69-.8-.88-.33-.16-.56-.33-.7-.52-.14-.18-.2-.42-.21-.71,0-.72.48-1.19,1.44-1.4.39-.09,1.08-.13,2.06-.14,1.27,0,2.15.07,2.63.22.77.24,1.16.69,1.17,1.36,0,.56-.31.98-.94,1.27-.25.11-.42.21-.51.3-.09.09-.17.22-.24.39-.22.57-.34,1.64-.34,3.22l.02,4.2c0,.64.01,1.52.03,2.64.02,1.51-.07,2.6-.25,3.27-.22.83-.63,1.25-1.23,1.25-.26,0-.49-.05-.67-.16s-.5-.37-.94-.77l-7.5-6.8c-.52-.48-.96-.72-1.3-.71-.51,0-.76.73-.76,2.18,0,1.19.08,2.01.21,2.45.13.44.4.76.8.96.56.28.85.65.85,1.1,0,1.19-1.25,1.8-3.76,1.81-1.13,0-2.01-.14-2.64-.44-.63-.3-.94-.73-.94-1.29,0-.29.06-.51.17-.66.12-.15.38-.34.79-.6.39-.24.63-.67.71-1.28.14-1.11.2-2.7.19-4.78-.01-2.21-.15-3.83-.4-4.84-.09-.37-.21-.64-.36-.82-.14-.18-.38-.35-.71-.51-.38-.19-.64-.37-.79-.55-.15-.18-.22-.4-.22-.66,0-.82.69-1.35,2.07-1.57.47-.07,1.29-.11,2.47-.12.67,0,1.16.05,1.47.15.31.11.67.35,1.09.72Z" />
    <path class="c" d="m375.73,739.87l-.91.03c-.53.02-1.12.06-1.77.13-.41.05-.7.07-.85.08-.56.02-1.02-.1-1.38-.36-.36-.25-.55-.6-.56-1.03,0-.3.06-.54.21-.71s.4-.31.75-.43c.33-.1.56-.24.67-.44.11-.2.19-.58.24-1.13.05-.65.07-1.9.07-3.76,0-1.86-.03-3.71-.09-5.55-.02-.72-.09-1.2-.21-1.44-.12-.24-.38-.42-.79-.56-.59-.21-.89-.58-.9-1.12-.01-.42.18-.75.57-1s.94-.38,1.66-.4c.23,0,.51-.01.83-.01.71,0,1.22,0,1.54,0,1.2-.04,2.55-.12,4.06-.24.32-.03.72-.05,1.19-.06,1.92-.06,3.45.12,4.58.53,1.68.62,2.97,1.71,3.85,3.26.79,1.37,1.21,3.01,1.27,4.93.03.97-.08,1.94-.33,2.93-.25.98-.6,1.84-1.04,2.56-.93,1.47-2.24,2.52-3.94,3.16-1,.37-2.07.58-3.21.61h-1.52s-1.31,0-1.31,0c-1.02,0-1.91,0-2.68.03Zm2.22-14.03l.3,9.96c.02.54.14.92.37,1.14.23.22.62.32,1.14.31,2.45-.07,3.62-2.02,3.5-5.82-.06-2.1-.4-3.72-1-4.86-.67-1.26-1.75-1.87-3.25-1.82-.4.01-.68.1-.84.27-.16.17-.23.44-.22.83Z" />
    <path class="c" d="m393.02,721.7l6.46-.33c1.31-.07,2.26-.14,2.86-.23.6-.08,1.18-.23,1.74-.43.17-.06.31-.09.41-.1.44-.02.83.2,1.19.66.59.75.92,1.68.97,2.79.03.56-.07,1-.28,1.33-.21.33-.52.51-.92.53-.28.01-.5-.03-.66-.14-.16-.11-.38-.36-.66-.75-.4-.56-.88-.92-1.46-1.08-.58-.16-1.51-.21-2.8-.15-.96.05-1.54.25-1.73.62-.1.19-.15.45-.16.77,0,.32.02,1.13.09,2.43.03.51.12.83.3.95s.62.16,1.33.12c.35-.02.6-.11.76-.26s.24-.43.26-.82c.03-.5.08-.84.13-1.03s.16-.35.32-.5c.17-.16.37-.25.6-.26.34-.02.65.14.91.46.19.24.36.67.51,1.3.15.62.25,1.28.28,1.96.07,1.35-.08,2.47-.45,3.36-.2.48-.54.74-1,.76-.29.01-.49-.05-.6-.2s-.22-.45-.3-.92c-.17-.96-.75-1.42-1.73-1.37-.38.02-.63.15-.75.41s-.17.71-.14,1.37c.02.4.07.92.16,1.56.09.64.17,1.05.23,1.26.08.25.3.42.65.5.35.08.94.1,1.75.06,1.26-.06,2.2-.28,2.82-.64.62-.36,1.11-.99,1.47-1.87.21-.51.4-.85.58-1.04.18-.18.42-.28.72-.29.35-.02.65.12.9.42.25.3.38.69.41,1.16.03.51-.07,1.16-.29,1.95-.22.78-.5,1.49-.85,2.11-.18.3-.33.5-.45.61s-.28.16-.47.17c-.16,0-.39,0-.7-.04-.54-.08-1.26-.1-2.16-.08l-10.67.54c-.43.02-.76-.06-1.01-.24-.24-.18-.38-.45-.39-.8-.01-.25.03-.43.12-.55.1-.12.32-.27.67-.46.25-.12.42-.27.54-.44.11-.17.2-.41.25-.73.21-1.31.26-3.06.15-5.25-.17-3.31-.47-5.38-.92-6.23-.09-.17-.19-.28-.29-.35-.1-.06-.32-.13-.64-.21-.48-.12-.74-.44-.77-.94-.01-.27.05-.52.2-.74.15-.22.35-.37.61-.46.32-.09.95-.16,1.89-.21Z" />
    <path class="c" d="m422.94,725.52l.45,5.89c.1,1.33.28,2.17.53,2.54.31.43.91.62,1.8.55.95-.07,1.69-.34,2.21-.81.52-.47.85-1.17,1-2.09.08-.57.35-.87.79-.9.44-.03.82.14,1.13.53.31.39.49.9.54,1.55.08,1.06-.22,2.22-.9,3.49-.21.4-.41.68-.58.84-.17.16-.39.24-.65.26l-2.81-.13-8.78.67c-.58.04-.99,0-1.23-.11-.36-.17-.55-.45-.58-.85-.02-.24.03-.42.13-.55.1-.12.37-.31.78-.56.46-.27.74-.62.84-1.05.08-.36.06-1.39-.07-3.08-.06-.79-.17-1.92-.32-3.4-.15-1.42-.26-2.48-.32-3.2-.05-.68-.14-1.15-.26-1.39-.12-.24-.36-.41-.7-.5-.57-.15-.93-.29-1.09-.39-.28-.19-.44-.43-.46-.7-.05-.62.42-1.14,1.41-1.54.84-.35,1.98-.58,3.43-.69,1.62-.12,2.84-.13,3.66-.02,1.06.15,1.61.58,1.66,1.27.02.28-.03.5-.16.64s-.45.36-.97.63c-.31.17-.49.43-.55.79-.06.36-.04,1.13.05,2.31Z" />
    <path class="c" d="m440.07,718.03c2.15-.21,4.08.24,5.81,1.34,1.17.76,2.16,1.79,2.97,3.1.79,1.3,1.25,2.64,1.39,4,.2,2.02-.28,3.88-1.43,5.6-.97,1.46-2.32,2.56-4.04,3.33-1.06.46-2.14.75-3.24.86-1.45.14-2.86-.03-4.24-.52-1.67-.59-3.03-1.59-4.07-3.01-1.02-1.37-1.61-2.93-1.78-4.68-.2-2.03.19-3.88,1.17-5.54.87-1.48,2.12-2.63,3.75-3.44,1.09-.55,2.33-.9,3.72-1.03Zm-.83,3.79c-.7.07-1.23.44-1.57,1.12-.27.51-.38,1.09-.31,1.75.09.96.39,2.06.9,3.29.51,1.23,1.1,2.31,1.78,3.24.3.39.65.7,1.06.91s.8.3,1.2.26c.63-.06,1.12-.35,1.46-.88.34-.52.47-1.18.4-1.98-.1-1.03-.37-2.13-.81-3.3-.44-1.16-.96-2.14-1.56-2.94-.37-.49-.78-.87-1.22-1.12-.45-.26-.88-.38-1.31-.35Z" />
    <path class="c" d="m457.8,716.12c.86-.1,2.01-.02,3.45.25.17.03.31.04.41.03.08,0,.32-.12.72-.32.13-.07.27-.11.42-.13.56-.07,1.2.31,1.93,1.14.73.83,1.14,1.65,1.24,2.47.06.48-.04.9-.28,1.26s-.56.57-.96.61c-.33.04-.61,0-.84-.11-.23-.11-.73-.46-1.52-1.05-1.11-.84-2.15-1.2-3.12-1.08-.47.06-.83.21-1.08.48s-.36.58-.31.96c.09.74.79,1.22,2.11,1.45,1.79.31,2.94.56,3.45.74,2.25.8,3.5,2.23,3.74,4.29.22,1.81-.33,3.38-1.65,4.71-1.34,1.35-3.21,2.17-5.6,2.46-1.07.13-2.21.13-3.42.01-1.21-.12-2.11-.32-2.67-.61-.43-.22-.86-.78-1.29-1.65-.43-.88-.7-1.75-.8-2.62-.05-.42,0-.74.14-.98.18-.3.42-.46.74-.5s.64.09.97.39c.2.17.68.72,1.45,1.66.37.44.9.78,1.61,1.01s1.42.31,2.14.23c.62-.07,1.1-.25,1.46-.53s.51-.6.47-.97c-.04-.34-.23-.62-.55-.83-.33-.21-.84-.38-1.54-.52-1.24-.24-2.19-.48-2.85-.73s-1.29-.58-1.89-1c-1.46-1.04-2.28-2.31-2.46-3.83-.09-.75,0-1.5.25-2.25.26-.75.67-1.42,1.23-2.02,1.26-1.37,2.89-2.17,4.91-2.41Z" />
    <path class="c" d="m482.58,723.43c-.32.05-.5.18-.56.38-.06.21-.03.67.08,1.38.16,1.08.36,1.91.58,2.49.07.16.15.29.25.37.1.08.27.17.53.27.54.2.85.54.92.99.08.56-.2,1.01-.86,1.35-.66.34-1.81.63-3.46.88-3.07.47-4.7.1-4.88-1.08-.03-.2-.01-.37.06-.51.07-.14.25-.34.54-.61.33-.3.53-.63.61-.98s.08-.95,0-1.78c-.05-.61-.36-2.77-.92-6.49-.18-1.18-.36-1.97-.54-2.38-.18-.41-.48-.68-.89-.82-.39-.12-.66-.25-.81-.38-.15-.13-.24-.31-.27-.55-.05-.31.03-.61.23-.88s.5-.49.91-.67c.34-.15.83-.27,1.45-.36.27-.04.96-.1,2.07-.18.21-.01.54-.06.99-.12.75-.11,1.74-.32,2.96-.61.78-.18,1.33-.29,1.64-.34,1.78-.27,3.31-.06,4.61.64,1.17.63,1.85,1.65,2.07,3.04.12.78.04,1.52-.22,2.21-.27.7-.7,1.25-1.29,1.67-.25.18-.35.36-.33.54.04.25.27.41.7.5.92.19,1.63.58,2.14,1.17s.95,1.55,1.33,2.87c.16.55.32.9.49,1.04s.52.25,1.06.33c.17.03.32.12.45.26.13.15.21.33.25.53.04.26-.02.54-.18.84-.16.3-.38.55-.68.75-.65.44-1.58.75-2.79.93-1.62.25-2.84-.02-3.67-.78-.37-.34-.72-.79-1.03-1.35-.31-.56-.71-1.45-1.2-2.66-.31-.78-.64-1.31-.99-1.59s-.79-.4-1.34-.34Zm-1.71-6.38l.31,2.99.02.11c.05.31.12.5.22.59s.29.11.55.07c.73-.11,1.23-.38,1.51-.82s.35-1.08.22-1.93c-.25-1.64-.94-2.37-2.08-2.2-.32.05-.54.16-.65.33-.11.17-.14.46-.1.85Z" />
    <path class="c" d="m495.01,711.15l6.37-1.14c1.29-.23,2.22-.43,2.8-.59.58-.16,1.14-.38,1.67-.65.16-.08.3-.13.4-.15.43-.08.85.09,1.27.5.68.67,1.12,1.55,1.32,2.64.1.55.06,1-.11,1.36-.17.36-.45.57-.85.64-.27.05-.5.03-.67-.06-.17-.09-.42-.3-.75-.66-.46-.5-.99-.8-1.58-.89s-1.52-.02-2.8.21c-.95.17-1.5.45-1.64.83-.07.21-.09.47-.06.78.04.32.17,1.12.4,2.4.09.51.23.81.42.9s.63.08,1.33-.05c.35-.06.59-.18.72-.36.13-.18.18-.46.16-.84-.03-.5-.03-.85,0-1.04.03-.19.11-.37.26-.54.15-.18.33-.3.57-.34.34-.06.66.05.96.34.22.21.44.62.67,1.22.23.6.41,1.24.53,1.91.24,1.33.23,2.46-.02,3.39-.14.5-.44.8-.89.88-.28.05-.49.01-.62-.12s-.27-.42-.41-.87c-.3-.93-.93-1.31-1.89-1.14-.37.07-.6.23-.7.5-.09.26-.08.72.04,1.37.07.4.19.91.36,1.53.17.62.3,1.03.39,1.22.11.24.35.38.71.42.36.04.94-.02,1.74-.16,1.24-.22,2.14-.55,2.71-.99s.98-1.12,1.22-2.04c.14-.53.29-.9.45-1.1.16-.2.38-.33.68-.38.35-.06.66.04.94.31.28.27.47.63.55,1.1.09.51.08,1.16-.04,1.97-.12.81-.31,1.54-.58,2.2-.14.32-.26.54-.37.66-.11.12-.25.2-.44.23-.16.03-.39.04-.7.05-.55,0-1.27.06-2.15.19l-10.51,1.89c-.42.08-.77.04-1.03-.11-.26-.15-.43-.4-.49-.74-.04-.25-.03-.43.05-.56.08-.13.28-.31.61-.54.23-.15.39-.32.48-.5.09-.18.14-.44.15-.76.04-1.32-.13-3.07-.52-5.23-.59-3.26-1.15-5.28-1.7-6.06-.11-.15-.23-.26-.34-.31s-.33-.09-.66-.13c-.5-.06-.79-.34-.88-.84-.05-.27-.01-.53.11-.76s.3-.42.54-.53c.31-.13.93-.28,1.85-.45Z" />
    <path class="c" d="m524.48,717.91l-.75,3.7c-.13.62-.26,1.05-.37,1.28-.11.23-.26.37-.45.41-.18.04-.36,0-.53-.14-.11-.08-.4-.41-.86-.98-.46-.57-.85-1.08-1.17-1.53l-2.42-3.39c-.33-.47-.62-.68-.87-.63-.26.06-.36.31-.29.76.15,1,.32,1.92.5,2.76.19.87.35,1.46.5,1.75.1.17.2.29.31.35.11.06.4.16.87.29.3.08.49.3.57.66.2.94-.88,1.66-3.23,2.16-1.99.42-3.08.18-3.27-.74-.05-.23-.04-.42.05-.54.08-.13.31-.34.69-.64.24-.18.39-.39.44-.63s.04-.68-.03-1.32c-.07-.69-.24-1.8-.5-3.35-.26-1.55-.51-2.86-.74-3.96-.29-1.37-.59-2.27-.9-2.72-.11-.15-.22-.26-.33-.32-.11-.06-.31-.13-.61-.21-.64-.16-1.01-.47-1.11-.92-.06-.29-.01-.58.15-.88.17-.29.42-.52.76-.7.34-.19.8-.38,1.39-.59s1.09-.36,1.51-.45c1.05-.22,1.81-.29,2.29-.21.23.04.42.12.58.23.15.12.39.37.72.77l3.59,4.27c.39.47.65.75.79.85s.29.12.48.08c.17-.04.3-.13.4-.28s.2-.42.3-.8l1-3.83c.12-.49.2-.81.23-.96.22-.92.5-1.57.84-1.93.42-.47,1.3-.84,2.62-1.12,2.32-.5,3.6-.2,3.83.88.05.24.05.45-.01.61-.06.17-.21.38-.44.65-.31.37-.46.85-.44,1.42.06,1.2.27,2.63.62,4.29.46,2.14.96,3.99,1.5,5.56.13.38.27.64.4.76.13.12.44.28.93.47.34.14.54.38.62.71.13.59-.17,1.08-.88,1.49-.37.22-.76.39-1.19.53-.43.13-1.09.3-1.99.49-1.39.3-2.44.42-3.17.36-.8-.07-1.26-.37-1.38-.92-.04-.2-.03-.38.04-.53.07-.15.27-.44.61-.87.18-.22.25-.59.22-1.11-.03-.52-.17-1.38-.43-2.59-.14-.67-.27-1.11-.37-1.3s-.26-.27-.46-.23c-.23.05-.42.26-.56.63-.14.37-.33,1.08-.55,2.14Z" />
    <path class="c" d="m534.21,703.17l6.27-1.59c1.27-.32,2.19-.58,2.76-.78.57-.2,1.11-.46,1.62-.76.16-.09.29-.15.38-.18.42-.11.86.03,1.3.42.73.62,1.23,1.47,1.5,2.54.14.54.13,1-.01,1.36-.14.37-.41.6-.8.7-.27.07-.49.06-.67,0-.18-.07-.44-.27-.79-.6-.5-.47-1.05-.72-1.64-.77s-1.52.09-2.78.4c-.94.24-1.46.55-1.58.94-.06.21-.06.47,0,.78.06.31.25,1.1.57,2.37.13.5.29.79.48.87s.64.03,1.33-.14c.34-.09.57-.22.69-.41.12-.18.15-.47.1-.85-.07-.5-.09-.84-.07-1.04s.09-.38.22-.55c.13-.19.31-.32.54-.38.33-.08.66,0,.98.27.23.2.48.59.76,1.17.27.58.49,1.21.66,1.87.33,1.31.41,2.44.22,3.38-.1.51-.38.83-.83.94-.28.07-.49.04-.63-.07-.14-.12-.3-.4-.47-.84-.36-.91-1.02-1.24-1.97-1-.37.09-.59.27-.66.55-.07.27-.03.73.13,1.37.1.39.25.89.46,1.5.21.61.37,1,.48,1.19.13.23.37.36.74.37.36,0,.94-.08,1.73-.28,1.22-.31,2.1-.7,2.64-1.18.54-.48.89-1.18,1.07-2.12.11-.54.23-.92.37-1.13.14-.21.36-.36.65-.43.34-.09.66,0,.96.24s.51.6.62,1.06c.13.5.16,1.16.09,1.97s-.2,1.56-.42,2.23c-.12.33-.22.56-.32.69-.1.13-.24.21-.43.26-.15.04-.38.07-.69.09-.55.03-1.26.15-2.13.34l-10.35,2.62c-.42.11-.76.09-1.04-.04-.28-.13-.46-.37-.54-.71-.06-.24-.06-.43.01-.56s.26-.33.57-.58c.22-.17.36-.35.44-.54.08-.19.11-.44.1-.77-.05-1.32-.34-3.05-.88-5.18-.81-3.21-1.52-5.19-2.12-5.93-.12-.15-.24-.24-.36-.28s-.34-.07-.67-.08c-.5-.02-.81-.28-.94-.77-.07-.27-.05-.52.05-.77.1-.25.27-.44.51-.57.3-.16.9-.35,1.81-.58Z" />
    <path class="c" d="m558.7,714.87l-.87.26c-.51.15-1.07.34-1.68.58-.38.15-.65.25-.81.29-.54.16-1.02.16-1.43,0-.41-.15-.68-.44-.8-.85-.09-.29-.08-.53.02-.74.1-.21.31-.41.61-.61.3-.18.47-.38.53-.6.06-.22.04-.6-.06-1.16-.12-.64-.42-1.85-.9-3.65-.48-1.8-.98-3.58-1.51-5.34-.21-.69-.4-1.13-.57-1.33-.17-.2-.47-.31-.9-.34-.62-.05-1-.33-1.16-.85-.12-.4-.02-.77.29-1.12.31-.34.81-.61,1.5-.82.23-.07.49-.14.8-.22.68-.18,1.18-.31,1.48-.4,1.15-.34,2.44-.77,3.86-1.27.3-.11.68-.23,1.14-.37,1.84-.55,3.36-.77,4.56-.66,1.78.17,3.3.89,4.56,2.16,1.11,1.12,1.95,2.6,2.5,4.44.28.93.42,1.9.44,2.91s-.1,1.93-.35,2.74c-.52,1.66-1.52,3.01-2.99,4.06-.87.62-1.85,1.09-2.94,1.42l-1.47.39-1.27.34c-.98.26-1.84.5-2.58.72Zm-1.46-14.13l2.85,9.55c.15.52.37.85.66,1.01s.68.15,1.18,0c2.35-.7,2.98-2.88,1.89-6.53-.6-2.01-1.34-3.5-2.22-4.44-.97-1.04-2.17-1.35-3.61-.92-.39.12-.63.27-.74.48s-.11.49,0,.86Z" />
    <path class="c" d="m573.09,691.62c.91-.31,1.79-.52,2.64-.64,1.16-.15,1.86.13,2.1.84.08.24.09.43.02.58-.07.16-.28.42-.64.8-.3.31-.4.8-.3,1.48.1.67.47,1.93,1.1,3.76,1.07,3.1,1.8,4.99,2.21,5.68.14.22.28.37.44.45.16.09.41.15.74.2.61.06.99.33,1.15.79.22.65-.11,1.26-.99,1.84-.96.62-2.2,1.19-3.71,1.71-2.59.89-4.05.83-4.4-.17-.12-.37.01-.79.41-1.28.31-.38.42-.79.35-1.24-.17-.98-.77-2.97-1.8-5.97-.71-2.08-1.28-3.37-1.68-3.89-.23-.29-.59-.5-1.11-.63-.4-.11-.68-.21-.84-.32s-.28-.28-.36-.5c-.12-.35-.05-.68.21-1,.26-.32.78-.7,1.55-1.15.92-.54,1.89-.99,2.91-1.34Z" />
    <path class="c" d="m586.65,686.47c2-.8,3.99-.92,5.95-.34,1.33.4,2.58,1.11,3.72,2.14,1.13,1.03,1.94,2.18,2.45,3.46.75,1.88.82,3.8.2,5.77-.53,1.67-1.51,3.11-2.95,4.33-.89.74-1.84,1.32-2.87,1.73-1.35.54-2.75.77-4.21.69-1.77-.1-3.35-.68-4.75-1.74-1.36-1.03-2.37-2.36-3.02-3.99-.76-1.9-.9-3.78-.43-5.65.42-1.67,1.3-3.12,2.64-4.36.89-.84,1.99-1.52,3.28-2.03Zm.26,3.87c-.65.26-1.05.77-1.2,1.52-.12.57-.05,1.15.19,1.77.36.9.96,1.87,1.79,2.91.83,1.04,1.7,1.91,2.62,2.61.4.29.82.49,1.27.57s.85.06,1.22-.09c.59-.24.98-.66,1.16-1.25.18-.6.12-1.27-.17-2.01-.39-.96-.95-1.94-1.71-2.94-.75-.99-1.53-1.79-2.32-2.38-.49-.37-.99-.61-1.49-.74-.5-.12-.95-.11-1.36.03Z" />
    <path class="c" d="m602.46,679.47c.78-.38,1.89-.69,3.34-.91.17-.03.3-.06.4-.11.08-.04.27-.22.58-.54.1-.11.21-.19.35-.26.5-.25,1.24-.1,2.2.44.96.54,1.63,1.18,1.99,1.92.21.43.26.86.16,1.28s-.34.72-.7.9c-.3.15-.58.21-.83.18s-.84-.19-1.78-.49c-1.33-.42-2.43-.41-3.3.02-.42.21-.71.48-.86.81-.15.33-.14.67.03,1.01.33.67,1.15.89,2.47.66,1.79-.3,2.96-.45,3.5-.45,2.39,0,4.04.94,4.96,2.8.81,1.64.81,3.3.01,4.99-.82,1.72-2.31,3.12-4.47,4.18-.96.48-2.04.86-3.22,1.15s-2.09.4-2.72.31c-.48-.07-1.07-.44-1.77-1.13-.7-.68-1.24-1.42-1.63-2.21-.19-.38-.25-.7-.2-.97.07-.34.24-.58.53-.72.29-.14.63-.13,1.05.04.24.09.88.45,1.92,1.08.49.29,1.11.43,1.86.42.75-.01,1.44-.18,2.09-.5.56-.27.96-.6,1.2-.99.24-.38.28-.74.12-1.07-.15-.31-.42-.51-.8-.6s-.92-.08-1.63.03c-1.25.18-2.22.27-2.93.26-.71,0-1.41-.11-2.12-.31-1.72-.49-2.92-1.42-3.59-2.79-.33-.68-.5-1.41-.51-2.21s.15-1.57.49-2.31c.73-1.71,2.01-3.01,3.83-3.91Z" />
  </g>
</svg>
