<?xml version="1.0" encoding="UTF-8"?>
<svg id="Capa_1" xmlns="http://www.w3.org/2000/svg" viewBox="0 0 542.32 700.42">
  <style type="text/css">
    .st0 {
      fill: #1679B2;
    }
  </style>
  <g id="Grupo">
    <path class="st0" d="m538.87,540.61c-.84-1.95-2.51-3.1-3.26-5.09-.87-2.3-15.28-21.8-15.49-22.71-1.27-.84-6.59-5.89-8.14-7.77-1.52-1.85-4.7-3.19-5.88-4.9-1.27-1.85-.04-1.74-.44-3.45-.2-.88-1.25-.76-1.6-1.4-.6-1.1.44.06.33-1.52-.03-.43-1.62-.35-1.87-.81-.32-.58.28-1.26-.3-2.19-1.35-2.18-2.09-1.18-1.91-3.68.07-1.02.04-2.1.2-3.41-.03.22-.77-5.45-.77-5.45-.42-2.15.76-2.35-1.45-3.49-1.13-.58-2.44-.5-3.29-1.63-2.42-3.19,2.26,1.18,2.02-3.64-.07-1.45,7.33-1,7.06-3.49-.14-1.37-5.32-.46-6.44-2.93-.65-1.43.25-1.66-.03-3.45-.51-3.26-4.47,2.74-4.1-3.8.16-2.89-6.71.54-8.15-1.53.26-3.35,5.87,1.16,7.58-4.45,1.21-3.99-4.09-6.77-3.91-7.66,0,0,11.16,1.15,15.15,1.11-2.39-1.8-37.81-16.79-37.1-18.55.55-1.37,4.49-3.18,9.57-2.56,3.87.47,7.52-.16,10.72,1.32,6.17,2.85,8.05,2.38,11.57,3.66,6.89,2.51,11.06,2.72,10.85.37-.16-1.79-5.06-4.08-7.4-4.42-3.34-.49-8.15-3.16-12.22-4.6-1.57-.56-5.19-.77-9.65-2.13-4.65-1.41-8.84-3.71-8.61-4.72.47-2.05,43.98,3.85,43.7,1.47-.13-1.13-12.51-4.41-17.15-6.47,0,0,0,0,0,0-1.82-.57-24.11-9.41-27.07-10.75-2.02-.91,4.77-1.2,9.94-1.83,4.8-.58,9.46-1.52,8.79-1.28-1.65.59-2.98,5.44-1.51,7.86.72,1.19,5,5.53,11.48,2.22,3.34-1.71,3.2-6.22,1.03-9.05,2.81-3.06,2.34,2.01,4.64,1.07,1.16-.47,1.47-3.45,2.47-4.15.96-.67,2.92,1.89,3.87,1.7.53-.11.66-2.43,1.96-2.19,2.43.45,7.91.94,8.17-.38.29-1.51-5.71-2.98-7.11-4.43-1.07-1.11.64-2.21-.95-2.95-.87-.4-3.39,1.08-4.62.82-3.15-.68,1-3.39-1.32-5.09-1.69-1.24-4.72,2.79-7.56-.29,3.69-1.27,9.04-6.99,3.54-11.08-3.82-1.47-16.4-1.26-12.7,7.53.53,1.26-7.95-5.98-10.89-7.37-1.84-.87,24.61-1.77,26.17-1.3h0c4.49-.16,12.73.48,12.71-.42-.04-1.83-28.3-6.84-34.84-9.1-8.12-2.81,3.07-3.84,6.25-4,2.88-.14,5.18-1.73,8.04-1.98,3.27-.29,6.64,1.84,9.9,1.2,1.66-.33,2.8-1.48,4.36-1.95,1.04-.32,5.77-.31,5.69-1.69-.08-1.6-3.61-2.26-5.19-2.41-2.76-.25-5.01.61-7.62.24-3.83-.55-5.81-2.27-9.92-1.98-.77.05-4,1.2-7.4.83-5.6-.61-12.13-3-12.46-3.95,1.04-2.91,42.86-6,42.72-8.47-.13-2.31-31.51-5.14-38.08-6.19-2.35-.38-3.28-.36-4.09-2.37-1.33-3.32.87-4.58,3.08-5.48,1.07-.44,2.27-.31,3.4-.89.47-.24,2.73-2.83,3.22-2.9,2.68-.4,1.25.93,2.16,3.58.92,2.65,3.36,4.87,6.27,5.07.57.04,5.68-.79,6.31-1.13,2.78-1.46,3.51-4.46,2.33-7.31-1.31-3.17-3.55-1.78-5.3-3.61.01-3.25,7.88.62,9.3.29,2.62-.6-.4-3.96,1.51-4.98.8-.43,4.02,1.68,5.11,1.32.64-.21-.5-3.42,2.55-3.87,1.76-.26,5.4-1.49,5.13-3.16-.19-1.15-6.45-.84-7.96-1.61-3.09-1.58-.37-3.15-2.49-3.15-1.08,0-2.34,2.9-3.74,2.55-1.71-.43-.89-4.3-2.09-4.43-1.82-.2-5.9,5.72-8.37,2.77.11-1.39,3.03-2.29,3.54-3.88.55-1.7-.23-4.71-1.5-5.97-3.13-3.09-9.4-.84-11.67,2.35-.97,1.35-1.04,5.41-2.17,6.24-1.45,1.06-4.11-1-5.75-1.36-1.4-.31-4.21.43-4.84-1.43-.98-2.87,38.75-15.93,38.57-17.56-.18-1.72-45.12,6.71-40.38,1.06,2.99-3.57,9.72-3.52,13.6-5,2.12-.81,3.67-2.04,5.97-2.39,2.73-.41,4.86-.02,7.53-1.14,2.16-.91,12.04-4.11,10.69-6.86-1.73-3.53-11.44.61-13.95.7-2.94.11-5.52-.43-8.43.37-3.03.83-5.58,2.35-8.77,2.79-2.84.39-5.7.05-8.55.38-2.11.24-6.87,1.97-8.91,1.17-5.15-2.02,38.72-18.08,38.19-19.59-.5-1.44-35.28,7.84-39.43,2.43,0,0-.16-2.66-.98-3.44,1.31-1.68,5.66-3.37,7.62-4.26,3.92-1.78,5.56,2.61,9.96,2.71,3.72.08,7.62-2.42,7.17-6.46-.39-3.53-6.06-4.88-6.07-5.25-.07-2.78,5.82-1.19,7.56-1.64,1.52-1.17-1.11-2.97-.88-4.08.57-2.71,5.45-1.03,6.7-2.39.62-.67-.82-1.77-.22-2.6.7-.95,4.46-2.54,4.09-3.66-.33-.99-4.71-.07-5.8-.32-.95-.22-1.21-1.95-2.16-1.91-2.99.13-2.55,4.21-6.19,2.71-1.03-.43-.23-2.9-2.04-2.94-1.12-.02-6.44,6.95-8.14,3.67,3.64-1.18,5.12-3.61,2.74-6.96-2.11-2.96-5.11-4.28-7.62-2.93-4.15,2.23-3.35,6.93-4.53,6.54-2.29-.74-7.95,1.71-8.06,1.45-.15-.34-1.15-1.71-1.79-1.96-.4-.15,23.35-14.32,27.23-17.34-4.73,1.38-31.71,10.31-35.98,11.38-6.62,1.66,1.97-6.83,4.69-8.72,1.48-1.03,4.78-2.1,6.3-2.98.62-.36,2.61-2.88,2.81-3.06,3.94-3.68,6.98-1.64,8.38-4.23,2.68-4.96,6.34-3.43,6.51-5.44.11-1.36-1.66-2.24-3.29-2.01-1.48.21-2.85,1.73-4.17,2.36-2.26,1.08-4.55,1.18-6.88,1.93-4.5,1.44-6.5,4.92-12.2,5.43-2.59.23-11.6,5.96-10.27,1.91.91-2.76,29.58-23.13,27.59-24.46-1.31-.87-33.61,14.21-36.82,13.86-8.25-.92-2.62-3.48-.4-5.28,1.29-1.04,2.6-3.47,4.13-4.02,2.16-.78,4.81.94,7.26.72,3.74-.34,7.74-3,7.44-7.19-.11-1.45-.84-3.06-1.95-4.01-1.44-1.24-3.73-.73-4.94-1.21-3.78-1.51,4.96-2.24,5.6-2.92,1.01-1.06-1.91-3.8-1.47-4.91.47-1.21,4.42-.49,5.11-1.21,1.47-1.55-1.17-1.78-.42-3.65.8-1.99,5.55-3.97,4.92-5.92-.92-2.81-6.63,1.02-8.41,1.38-1.11.23-2.39-1.78-3.49-1.26-.71.34-.89,4.17-1.53,4.43-2.35.95-1.69-.95-3.91-2.38-2.38-1.53.34,6.81-6.34,6.68-.41-1.13,1.5-2.45,1.61-3.76.14-1.73-.82-2.95-2.06-4.03-3.4-2.98-8.22-2.65-11.38.45-.03.04-.07.08-.1.12-1.2,1.92-1.62,4.08-1.16,6.3.13.63,2.56,4.19,2.5,4.6-.15.96-7.84,3.16-8.65,3.23-.96.08-3.07.9-4.08-.18-1.01-1.08,20.81-27.13,24.86-34.32-3.1.49-34.89,25.63-36.62,25.61-.95-2.01,3.22-6.36,4.48-7.76,3.25-3.58,2.31-5.59,6.04-10.72,2.72-3.74,6.47-5.11,11.32-10.04,2.18-2.22,3.91-6.3,2.49-7.58-3.79-3.4-8.19,6.9-11.94,8.68-6.23,2.97-7.54,5.97-10.81,9.7-1.01,1.15-7.75,6.79-9.22,5.28-1.43-1.48,21.47-34.17,19.75-33.76-2.12.5-20.76,15.06-23.11,16.89-2.01,1.57-7.9,4.96-10.1,1.88-3.78-5.28,4.36-3.45,5.85-3.67,4.38-.66,8.17-3.74,6.39-8.36-.54-1.41-1.49-2.79-2.8-3.58-1.21-.73-3.39-.21-4.28-1.2.8-2.03,1.59-1.43,2.54-3.23,1.04-1.97-2.78-1.9-2.72-4.13,0-.81,2.85-2.43,3.83-3.32.84-.77-2.86-2.38-1.7-3.57.41-.72,2.93-6.01,1.16-6.74-2.31-.96-4.51,3.35-6.17,4.44-1.41.92-1.97-1.66-3.24-.93-1.44.82-1.02,4.93-1.96,6.31-1.58-.04-2.08-3.01-4-2.31-1.75.65-2.4,5.04-2.54,6.45-3.34-1.23-4.41-5.2-8.62-3.5-3.27,1.32-5.25,5.14-4.41,8.44.66,2.63,4.74,4.28,3.99,6.65-.19.59-3.4,2.77-3.9,3.33-.46.52-1.99,3.58-2.68,3.84-7.92,2.88-5.43-8.88-4.71-12.52,1.7-8.69,4.16-17.28,5.19-26.07-2.83,2.5-18.27,35.16-20.42,34.63-1.6-.72,2.34-10.95,2.61-12.99.06-.47-.52-4.55.08-5.17.97-1.01,4.26-2.57,5.29-4.95.61-1.42-1.2-6.14-1.11-8.18.08-2.14-.4-4.95.2-7.04.47-1.63,4.52-5.86,4.37-7.7-.19-2.21-11.81-10.47-11.62-13.65-.13-1.93,8.1-9.14,7.47-12.97-.25-1.49-6.08-2.9-7.67-3.43-6.74-2.24-7.85-2.01-6.68-9.66.43-2.83.69-7.32-.68-9.05-1.82-2.31-10.73,1.45-14.76.22-4.81-1.47-8.69-15.99-10.56-16.31-2.62-.45-11.43,7.72-15.77,7.24-4.08-.6-9.47-11.1-12.12-10.9-2.68.2-8.01,9.6-11.11,11.48-4.06,2.47-12.67-7.76-14.91-5.72-1.91.9-2.9,11.88-4.75,13.79-2.36,2.45-15.1-.36-16.66.99-2.39,2.07,1.89,12.59.79,15.56-1.65,4.45-16.41,4.91-17.03,6.99-.3,1,7.09,12.9,6.36,16.61-.65,3.29-9.89,6.18-10.43,9.85-.34,2.3,13,8.78,12.34,13.7-.43,3.15-8.09,6.72-7.83,10.47.18,2.7,10.72,4.51,10.64,9.45-.07,4.01-.15,10.79-.51,10.89-1.5.42-10.69-20.91-13-24.59-.64-1.01-5.14-10.3-6.36-10.19-2.07,1.29,9.13,36.74,6.96,38.76-3.42,3.19-6.13.62-7.7-1.3-.84-1.03-4.02-3.25-4.29-4.03-.53-1.52-.48-.41.59-2,1.87-2.81,5.21-2.51,4.22-7.41-1.6-7.91-14.32-7.31-12.33,1.52-4.71-1.39,1.92-14.79-7.2-8.47-2.87-1.6-.89-3.32-2.3-5.04-.94-1.15-2.46,1.03-3.38.32-.73-.57-3.6-5.9-4.88-4.87-1.24.99,1.55,5.93,1.61,7.49.05,1.13-1.51,1.01-1.46,2.23.02.67,2.68,2.17,2.31,3.51-.43,1.55-2.41,1.77-2.15,3.58.28,1.92,4.22,3.11,4.77,5.46-2.83-.08-3.63-3.07-7.08-1.35-3.22,1.62-4.77,5.53-3.13,8.73,1.07,2.09,3.03,3.11,5.17,3.62,1.75.41,4.62-.67,6.05-.1,1.82.72,3.67,7.31,2.97,9.68-2.41,8.16-29.67-20.39-30.52-19.62-1.12,1.01,10.07,20.57,12.15,24.23,1.39,2.45,2.56,6.68-1.18,5.13-1.33-.55-2.64-3.8-3.66-4.77-1.67-1.59-3.5-1.74-5.19-3.32-1.08-1.01-1.72-6.69-5.53-8.77-3.91-2.13-7.35-6.28-8.77-5.19-2.21,1.7,2.27,6.4,3.74,7.74,3.06,2.81,2.21,6.98,4.34,10.21,2.98,4.51,7.4,8.09,7.59,13.51.17,4.85-3.07.28-5.51-1.76-4.41-3.67-20.47-17.89-23.98-20.03.99,3.17,15.95,27.9,17.73,31.56,1.21,2.46,2.43,4.35-.95,4.31-1.56-.02-8.69-4.38-8.77-5.55-.08-1.07,1.52-2.5,1.75-3.73.34-1.77-.08-3.5-.95-5.05-3.83-6.83-16.01-2.44-11.55,4.9-4.54,2.61-4.29-5.62-5.71-5.86-1.39.04-1.94,2.16-3.2,2.04-.96-.09-2-3.24-3.1-3.59-1.16-.37-2.53,1.67-4.03,1.19-1.41-.46-5.17-4.4-6.51-3.12-.92.87,3.86,5.39,4.27,5.85,1.74,1.07-.75,1.96-.81,2.98.13,1.47,3.79,1.84,4.01,4.28.14,1.59-3.21,1.16.01,3.51,3.13,2.28,8.74-.83,8.17,6-2.21-1.44-3.01-3.42-5.92-2.76-2.52.57-3.85,3.11-3.79,5.5.15,5.62,6.28,7.45,10.72,5.71,3.22-1.27,3.13-3.02,5.85-.63.77.68,3.82,4.66,4.27,5.67.76,1.68-.25,4.51-2,5.99-2.44,2.06-39.52-16.63-40.17-15.52-.85,1.44,37.73,28.43,31.3,28.01-2.51-.16-5-.17-7.94-2.71-2.66-2.29-7.06-2.26-10.3-3.32-4.86-1.59-5.98-6.12-11.29-6.74-3.17-.37-11.91-3.57-6.93,1.86,1.83,2,4.48,2.71,6.4,4.51,1.82,1.72,2.6,3.46,4.75,4.88,2.13,1.4,4.76,1.97,6.97,3.16,2.88,1.55,4.21,3.9,6.52,6.12.69.66,4.46,1.92,2.33,3.41-.84.59-36.95-11.19-37.17-10.74-.47.98,36.45,22.2,30.09,26-1.67,1-4.82.43-6.47.29-2.29-.19-6.3.5-8.45,1.17-.11-.09,2.08-5.06,2.13-6,.13-2.55-.78-5.26-3.06-6.56-1.75-1-4.34-.62-6.13.11-3.87,1.58-1.91,4.65-2.59,6.35-1.96,4.9-4.14-1.11-5.66-.39-1.32.62-1.36,3.21-2.62,3.63-3.04,1.91-3.38-2.4-4.81-2.96-.85.04-.77,2.15-3.34,2.36-1.58-.46-5.79-3.61-7.1-2.41-1.42,1.35,5.02,5.67,5.48,6.71.7,1.6-.85,2.74-.34,3.32,1.45,1.64,4.64-.66,6.15.61,1.55,1.3-.7,4.04-.41,5.48.11.52,5.87-.6,5.91,1.15.03,1.03-3.23,2.98-3.07,5.67.18,2.98,2.63,5.83,5.92,6.02,6.83.38,4.84-5.21,7.89-8.37,2.03,1.86,3.97,4.1,6.25,5.66,2.09,1.42,4.5,1.38,4.74,4.09.37,4.12-3.48,3.97-6.21,3.95-6.36-.04-31-2.95-37.11-3.92,3.35,1.69,37.63,14.38,45.66,16.82-2.72,3.08-13.06-1.6-17.1-1.43-4,.17-12.79-6.03-14.89-5.87-4.28.32-5.18-.64-8.44-1.05-1.39-.17-5.44-.5-6.07.58-.45.76.16,1.25,3.7,3.57,4.05,2.65,7.91,3,12.35,5.73,4.4,2.7,9.41,2.38,13.63,5.83,1.89,1.55,11.76,3.22,12.2,5.01-3.72.77-39.34-3.55-47.97-2.91,10.36,4.48,40.74,14.01,37.33,18.28-1.06,1.33-2.94-.08-5.65.05-3.02.14-6.27.81-6.38.72-1.05-.86-.32-4.95-1.1-6.35-1.21-2.17-3.22-2.98-5.59-3.25-2.25-.26-3.98-.03-5.65,1.55-1.59,1.51-2.13,3.37-2.11,5.08.05,6.7-3.73-.12-4.72,1.38-.73,1.11-1.44,3.08-1.94,3.5-1.63,1.35-3.44-2.75-3.63-1.58-.72,4.32-5.7,3.03-5.91,3.98-.35,1.55,4.29.65,4.18,5.87.41.83,4.05-.01,4.92.7,1.5,1.22-.94,3.05.39,3.59,1.53.63,5.02-2.07,6.32-.17.69,1.01-.75.62-1.48,1.58-2.57,3.39-2.96,7.44,1.24,9.52,4.8,2.38,8.79-.56,11.77-3.75,1.75-1.87,2.07-1.96,3.28-1.82.84.1,1.37,1.35,3.06,1.83,2.14.6,2.69.12,3.54.5.92.41.13.57.38,3.49.3,3.44,1.62,3.06.87,3.57-1.45.99-30.26,2.19-36.45,3.45,2.9,1.97,36.12,7.71,38.28,9.58-.4,1.33-7.5,1.68-11.06,1.33-3.99-.39-7.11,1.9-11.17,1.79-4.18-.11-7.03.2-11.11,1.21-3.03.75-5.91.26-5.73,1.56.12.86,2.72,2.55,3.65,2.65,3.4.38,7.18.68,9.53,1.53,3.99,1.44,8.19.19,12.46.14,3.37-.04,8.1,1.54,10.22,1.78,1.87.21,5.68-.77,5.76,1.54-1.23,4.65-38.61,7.31-40.81,10.14.92,2.05,40.93,2.21,38.37,6.18-1.23,1.9-5.73,2.41-7.58,3.29-1.27.6-2.54,2.88-3.97,2.83-.92-.6-.38-2.62-.81-3.57-.85-1.91-1.97-3.31-3.97-4.13-3.03-1.24-7.92-.71-10.19,1.91-4,4.62,5.62,12.71-.42,9.05-1.1-.67-2.32-2.59-3.7-1.15-1.21,1.26,0,4.17-3.06,3.28-1.87-.55-.62,1.89-2.36,3.26-1.32,1.03-4.06.52-4.13,2.57-.05,1.49,2.45,1.38,3.81,2.28,2.27,1.51-.31,2.69,2.7,2.65,1.24-.02,2.22-1.5,3.43-.1.29.33-.23,2.62.06,2.93,2.22,2.32,5.42-2.47,8.36-1.14-9.74,5.22,2.16,16.8,10,9.33,1.88-1.79,1.13-4.25,2.46-5.88,1.55-1.88,3.68-.44,6.05-.21,1.33.13,6.48.17,5.48,3.19-.46,1.37,1.68,2.55,1.55,3.13-.73,3.1-36.38,10.03-40.52,11.73,7.54,1.33,33.79,0,40.49-.11,10.22-.17,3.12,4.22-2.07,5.11-6.21,1.07-7.63,4.31-13.79,4.6-5.43.26-9.25,2.45-12.7,2.94-2.74.38-7.78,2.34-7.49,4.06.28,1.62,4.81,1.68,7.79,1.54,2.63-.13,3.96-1.66,5.62-1.83,3.88-.4,5.6.87,9.36-.21,2.73-.78,5.61-1.36,8.47-1.66,2.62-.28,5,.37,7.58.15,3.68-.31,6.87-2.62,10.65-2.12-1.62,2.62-42.82,17.91-45.52,20.26,2.37.6,41.16-6.04,40.32-.28-.08.57-4.99,2.5-8.61,7.66-1.02-5.93-4.25-10.33-10.69-7.74-2.66,1.07-4.17,3.47-3.41,6.57.78,3.19,3.35,3.54,5.87,4.66-3.76,1.78-12.13-.15-8.14,5.65-1.06,1.54-3.17.03-4.23.59-.99.51-1.39,2.03-2.4,2.66-1.57.99-8.35,2.76-8.24,4.49.11,1.75,6.15.77,9.05,1.2,1.3.19,2.26,1.74,3.49,1.66,1.62-.11,2-1.7,4.43-1.68,1.19-.07,1.43,1.91,3.25,1.81,1.81-.1,5.41-4.74,8.53-2.99-.59.22-3.05.9-3.89,2.93-1.79,4.34,1.79,1.79-6.7,11.55-7.09,8.15-15.16,16.08-21.92,24.67-3.24,4.11-7.47,6.34-10.8,10.23-3.62,4.23-5.6,10.3-9.74,13.84-1.83,1.56-3.68,2.11-4.82,4.5-1.26,2.64-1.07,5.83-2.11,8.6-1.24,3.3-3.04,6.44-3.95,9.87-.73,2.74.31,4.82-1.38,7.31-.05.64-.11,1.15,0,1.92.59.46.4,2.28,1.4,4.18.46.88.42,8.19.09,10.95-.51,4.21,1.11,11.67,1.6,11.97,2.19,1.37,4.43,1.96,6.82,2.32.81.12,3.25-.72,4.09-.63.89.1.2,1.13,1.14,1.24,2.15.27,7.28.83,9.26,2.43.87.7.41-3.85,1.28-3.06.96.88,1.18,5.76,2.36,6.24,3.34,1.34,4.18.54,6.99-.34,1.24-.39,2.03-1.42,2.84,1.17.37,1.18.19,1.62,1.43,2.46,1.89,1.28,6.05.38,8.24.53,4.48.29,9.83-.37,12.99,2.24,2.95,2.44,4.02,2.99,5.2-2.04,2.06.89,1.88,3.23,4.22,4.01,1.39.46,4.09-8.41,4.74-6.97.85,1.87,1.08,6.5,2.81,7.89,1.59,1.27,7.05,1.76,9.08,1.75,7.82-.03,1.4-7.97,2.28-12.19.81,2.18,2.35,4.92,2.51,7.25.19,2.8-1.71,3.87.63,5.72.84.67,6.54,1.33,7.57.82,1.62-.8,1.04-2.8,2.33-3.76,3-2.22,1.29,2.51,2.73,3.92.64.62,4.48,1.12,5.41.61,1.84-1.01,1.14-3.6,2.85-4.66.76,2.13-1.25,3.6.95,4.71,2.03,1.02,3.13-1.07,4.63-1.14.66-.03,1.23,1.27,2.3.71.81-.42,1.73-.55,2.64-.4,4.48.73,7.45-.71,11.27-.92,3.16-.17,6.28,1.46,9.52,1.53,2.45.05,5.59-2.09,7.67-1.77,4.08.64.2,13.32-.58,16.69-1.25,5.43-3.57,10.81-5.37,16.14-1.82,5.4-2.49,10.9-4.14,16.32-1.7,5.58-4.61,11.66-5.05,17.52-.52,6.97,2.08,14,2.39,20.92h263.8c.61-8.05.29-15.61-.51-23.66-.8-8.02-4.27-13.33-7.08-20.83-2.55-6.81-10.27-38.27-9.73-46,.32-4.46.87-4.28,5.35-4.61,3.92-.28,8.06-.98,11.98-.76,2.79.15,5.65.98,8.33-.72,3.53-2.24,2.77-3.43,2.57-5.41-.3-3.05.35-2.23.81-.17.68,3.06-1.98,4.66,1.49,7.36,1.42,1.1,5.58.41,7.47.64,1.89.23,3.3,1.75,5.17,1.91,2.09.18,2.99-1.23,4.33-1.55.71.1.82,1.87,1.63,2.22.99-.27,1.92-.69,2.79-1.24.46.26.93.52,1.39.78,1.77.03,7.09,1.23,8.66.29,2.13-1.27,3.65-6.31,3.79-8.41.24-3.49-.08-3.33.7-6.26.28,1.87.31.97.23,2.47-.09,1.71-1.07,6.15-.17,7.62.92,1.51,6.56.98,7.93.99,2.49.02,4.15-.35,6.58-.94.28-.07-.92-1.78.04-1.97,1.35-.27,1.85,1.51,2.17,1.44,2.61-.63,5.22-1.13,7.81-1.72.53-.12-.27-7.22.26-7.35.47-.11,2.26,6.75,2.73,6.62,1.59-.42,3.16-.91,4.73-1.5,1.39-2.77,3.68-.15,6.34-1.98,2.77-1.9,4.43-5.03,5.38-8.18.09,1.54.79,5.93,3.36,4.59,1.85-.97.5-4.13,1.43-6.01,2.19,9.6,2,.82,5.76-1.15,3.81,3.02,5.01-.5,6.47-3.34,1.08-.5,1.38,1.63,3.02,1.03,1.34-.49,2.66-2.99,3.92-3.91,2.4-1.73,1.94.72,3.54-3.22.52-1.29,1.06-4.61,2.4-5.15.97-.4,1.9,2.12,3.78,1.48,2.68-.92,1.66-3.94,3.01-5.48,1.34-1.54,2.23-.78,4.56-1.84,2.8-1.27,3.59-3.72,4.77-6.2.05-.69.09-1.31.13-1.99-1.9-5.56-1.15-12.39-3.44-17.7Zm-112.25-220.3c.46-.57,2.95-3.4,3.02-.77.09,3.34.93,6.6,1.16,9.46-.36,7.81-2.76-.51-4.09-3.56-1.15-2.65-2.12-2.62-.09-5.13Zm-96.77-150c1.58-.62,2.75-2.02,4.31-2.58,3.07-1.1,11.12,2.78,12.47,5.96,3.36,7.89-16.78.65-19.58-1.49-.32-.24-.67-.44-.85-1.06,1.15-1.04,2.41-.34,3.66-.83Zm-18.13-14.52c1.11-1.49,8.31,1.77,7.88,2.71-.95,2.02-.28,4.21-.67,6.23-.89.31-8.28-7.48-7.21-8.93Zm-5.07,4.84c1.72-7.11,5.71.01,7.62,2.33,2.72,3.31,5.75,6.38,9.14,9,4.3,3.33,8.61,5.63,13.96,6.63-.11-.02,5.81.21,5.11,3.35-.72,3.27,0,9.53-4.17,9.7-3.15.13-6.14-.39-6.59.54-.56,1.16.34,1.48,2.12,2.01,6.13,1.83,9.23.43,10.18-2.1,1.72-4.59,1.4-8.84,6.03-11.47,4.37-2.48,1.36,3.14,2.3,4.13.85.9,2.79-1.02,5.15.3,2.03,1.14-5.75,9.26-6.84,10.28-3.36,3.14-7.89,5.63-12.46,6.3-.55.08-1.11.13-1.66.19-7.55.33-14.8-7.37-18.57-13.02-3.13-4.68-5.59-9.99-7.67-15.22-1.37-3.44-4.53-9.27-3.64-12.94Zm-70.44-105.62c3.55-9.37,16.83-21.29,33.12-20.45,8.81.45,14.48,2.35,22.88,8.72.24.12,5.61,4.85,8.71,11.97,1.08,2.48,2.09,6.4,2.3,8.95.28,3.48.19,7.12-.68,10.47-2.56,9.9-5.26,11.38-10.5,17.07-.92,1-5.3,4.32-6.62,3.81-1.93-.74,1.62-3.24,2.13-4.56,1.88-4.86-1.38-11.52-4.27-15.37-3.38-4.49-4.5-9.71-8.93-13.29-1.86-1.5-7.51-6.13-5.73-8.01.52-.55,4.79.21,2.66-1.66-.87-.76-6.83-.55-8.24-.41-1.04.11-7.96,1.47-8.39,2.69-.68,1.93,3.43.86,4.41,1.01-.95,1.61-.35,3.4-1.13,5.12-.61-3.59-.14-4.12-3.56-3.32-2.55.6-5.29,2.05-7.3,3.64-.88.7-2.79,2-3.36,3.33-1.33,3.09.8,3.83,1.63,6.54.74,2.46-.32,4.13,2.14,5.07,1.41.53,5.13-.49,6.55-.38,1.58.12,1.77-.79,2.84.74.62.89.25,2.87-.18,3.69-1.23,2.34-4.61,2.41-6.14,4.59-1.48,2.11.41,6.56-1.15,8.07-1.54,1.48-5.12-1.9-6.32-3.11-6.26-6.33-7.52-11.07-9.13-18.35-.96-4.37.3-11.32,2.29-16.57Zm31.38,136.16c-2.28,2.17-3.79,1.29-6.34,1.3-2.14.01-6.73-.64-8.59.77-1.64,1.24-.87,3.09-2.37,4.48-1.44,1.34-1.32,7.3-.64,8.17,1.36,1.72,1.59,2.08,3.59.65.25-.18.6,0,.59.3-.02,1.91-.91,6.23-1.85,6.53-10.86,3.43-10.4-19.74-.64-24.32,3.71-1.75,11.85-5.82,15.93-3.4,2.71,1.6,2.25,3.7.32,5.53Zm1.55,19.17c-1.27-.88-1.24-6.77.79-6.65.89.05,1.31.7,1.23,2.03-.39,1.48,1.13,6.79-2.02,4.61Zm17.69,3.81c-.06-.37-1.8-5.43-1.53-6.88.21-1.16.97.03,1.83.52,1.02.58,1.82.54,1.96-.52,0,0,1.64-5.94-.65-8.43-.24-.26-.37-.62-.42-.97l-.37-2.57c.26-.94-.75-1.59-.93-1.63-1.17-.29-3.47.08-5.07-.28-3.06-.7-7.87.86-9.07-2.67-1.82-5.36,3.8-5.76,6.77-5.33,4.89.7,8.87,3.87,13.11,5.87,4.85,2.3,8.64,20.68-5.62,22.89Zm143.57,154.6c-.89,2.17-8.16,4.21-8.71,6.41-.39,2.73,7.7,4.94,7.74,8.73.03,3.35-.84,9.73-1.97,12.63-1.19,3.04-5.3,5.8-8.97,4.26-7.9-3.32-110.16-136.07-113.07-137.69-4.08-2.27-5.12-10.83-5.15-15.76-.03-3.71,1.79-12.15,5.08-13.81,1.51-.76,6.66-2.57,6.68-3.72.03-1.72-2.66-3.45-2.17-6.77.51-3.45,7.53-6.13,7.53-9.34-.1-1.8-6.76-5.76-6.64-7.9.1-1.76,5.3-8.14,4.87-9.7-.57-2.1-9.67-5.56-10.36-7.15-.64-1.47,1.78-10.14.26-11.67-.83-.84-10.04,1.85-11.56,0-1.6-1.95-2.61-10.22-5.23-11.24-2.79-1.09-9.38,4.72-12.64,3.77-3.26-.89-7.7-7.66-9.83-7.5-3.65.27-6.37,7.74-8.74,8.36-3.46.91-6.95-4.79-9.74-3.15-2.17,1.28-1.37,7.69-3.92,9.12-1.22.68-8.55-2.07-10.09-.99-1.34,1.28.79,9.96-1.05,11.68-2.26,2.11-10.79,1.84-11.17,4.31-.26,1.68,5.17,7.15,4.53,9.83-.78,3.27-8.11,6.26-8.07,9.03.01,1.12,6.29,3.72,6.88,6.77.84,4.3-3.69,9.41-3.72,10.66-.03,1.05,7.35,3.48,8.74,4.57,2.58,2.04,2.1,3.75,2.38,6.83.09,1.01.28,16.43-.42,19.19-1.28,5.08-2.65,3.28-5.5,6.59-4.53,5.28-97.46,129.83-100.47,134.62-1.66,2.64-2.57,4.56-6.06,2.92-3.01-1.42-5.76-15.68-5.88-16.52-.56-3.83,6.71-6.7,6.41-8.64-.4-2.52-5.6-2.59-7.05-4.25-1.31-1.49-1.92-15.51-1.74-19.34.23-4.85,8.2-3.69,8.88-6.81.63-2.91-2.51-2.88-1.45-6.13,1.37-1.73,5.39.54,5.87-1.78.6-2.9-2.04-.69-2.21-3.13-.29-4.11,1.33-15.81,9.01-12.58.91.38.43.9,1.25,1.38,1.47.85,4.06.89,5.61,1.23,3.9.86,7.46,2.38,8.56,3.46,1.24,1.22,1.69,1.5,2.36,1.02,2.45-1.73-.34-3.35-1.55-3.28-3.25.19-16.2-8.04-18.21-8.94-4.3-1.91-1.18-10.9-.13-15.69.72-3.3-1.56-2.82-3.01-2.73-.32.28-.61.47-.78.48-.75.04-2.6-1.08-2.6-1.64,0-.24,1.05-.24,2.37-.64.18-1.62.29-1.04-2.44-.75-3.51.38-3.64-4.03-3.06-7.21.38-2.09,6.78-3.22,7-6.01.2-2.54-5.47-4.5-5.51-6.63-.08-4.32,3.18-14.34,4.79-18.68,1.13-2.22,9.09-1.07,9.79-3.07.77-2.19-5.73-5.91-4.4-9.62,1.42-3.98,5.41-12.74,7.51-15.22,2.17-2.55,7.61,0,8.51-2,.72-1.62-4.04-6.26-2.43-8.88,1.54-2.51,8.81-9.65,9.41-10.7,1.63-2.83,9.54.41,11.09-1.24.95-1.01-1.62-4.32-.83-5.35.98-1.28,10.23,5.06,10.89,2.17.6-2.6-2.13-1.43-3.32-2.55-1.53-1.45-1.69-1.86-1.06-4.43.33-1.36,2.4-7.45,4.51-7.5,3.05-.08,1.09,4.1,1.33,5.5.27,1.57,1.71,1.48,2.62,3.1,1.34,2.38,1.73,10.21,5.58,10.08,4.67-.16-.22-2.42-.84-4.37-.33-2.87.2-4.09-1.3-6.77.68-.9-.28-3.06-1.58-3.12-.55-.61-2.69-6.74-2.79-8.1-.39-3.13,1.93-.87,3.31-2.3.8-1.14-1.1-4.34-.07-5.83,2.41-3.51,15.29-12.58,17.89-12.51,3.87.1,3.56,2.54,6.39,3.05,1.86.34,3.21-.29,4.99-.92,1.92-.68,4.01-1.19,5.41-2.84,1.6-1.89.24-2.1,1.46-4.18,2-3.4-1.97-5.1,5.43-7.67,5.52-1.91,9.29,3.6,11.13,3.38,2.68-.32,3.27-6.59,5.91-7.77,4.98-2.21,9.94-2.58,14.94-3.16,2.57-.3,6.04,7.47,9.79,7.41,4.17-.07,5.16-7.4,8.09-7.77,5.57-.71,16.49,1.31,21.87,2.6,6.52,1.56,6.08,3.4,7.82,9.85,1.37,5.07,3.49,9.85,5.16,14.82,3.33,9.92,8.91,21.75,18.16,27.46,10.14,6.26,20.49,1.44,27.71-6.39,3.73-4.05,6.11-6.54,9.86-.29,2.19,3.66.44,4.87.72,7.86.39,4.15-3.26,6.5,1.86,6.26,3.23-.15.96-3.7,3.09-5.38,1.28-1.01,2.25-.94,3.2.8.8,1.45-1.12,4.26-.03,5.6,1.4,1.73,7.3-2.83,9.02-1.17,3.49,3.37,9.12,10.37,10.7,12.95,2.04,3.32-3.1,7.24-2.16,8.87,1.05,1.83,6.74.63,8.54,2.39,1.13,1.1,6.06,9.17,7.77,14.6.97,3.08-3.04,6.69-2.15,8.73,1.06,2.44,5.59-.06,7.48,2.88,2.27,3.55,6.45,12.86,6.52,16.87.04,2.43-5.7,5.69-4.71,7.64.98,1.94,7.05.78,7.15,3.43.02.38-4.7,3.42-6.55,6.22-.91-.1-1.35-1.18-2.27-1.33-1.9-.3-.26,3.01-1.39,3.19-2.72.43-1.11,2.98-3.26,5.21-.76.79-1.64,1.83-1.94,2.89-.4,1.41.51,2.48-.38,3.84-1.08,1.64-4.32,1.73-4.55,3.99-.29,2.95-3.69,7.98-4.94,9.35-1.96,2.56-7.08-1.04-7.57,2.3-.11.76,3.91,1.8,8.68,1.28,1.66-.18,1.06-2.97,2.62-3.45,3.05-.94,5.65-2.39,7.31-1.85,3.62,2.95,5.97,6.7,8.16,10.48.97,1.67,2.17,2.2,2.55,4.31.47,2.61-1.69,4.41-1.77,6.46-.21,5.74,3.25,2.77,6.07,1.02,2.58-1.6,6.4-4.34,5.44-.67-.57,2.15-5.46,2.73-5.48,4.83-.02,2.36,2.47,2.36,4.04,3.26,3.51,2.02,4.88,3.04,5.16,7.46.22,3.54.66,10.49-.74,13.91Zm-24.98-52.71c-.33.8-3.77,1.46-4.8,1.78.81-1.17,3.49-4.13,3.51-5.9,1.63-.35,2.14,2.09,1.29,4.12Zm75.6,128.08c-1.21,2.91-.52,5.65-.62,5.43-.92-2.02-10.91-9.56-13.23-9.17-.38.06.13-.86.26-1.09l15.91,2.13s-1.66,1.11-2.32,2.7Z" />
    <path class="st0" d="m375.84,185.56s-1.88.96-.94,21.87c2.09,46.39,8,128.6,22.26,138.3,4.08,2.78,9.58-16.97,10.98-28.25,1.02-8.26-1.28-9.15-1.28-9.15,0,0-3.5,31.2-8.79,31.88-1.22.16-14.5,5.69-22.23-154.65Z" />
    <path class="st0" d="m376.39,196.38l3.15-2.31s4.04,110.93,38,98.55c23.04-8.4-.02,4.44-4.76,4.15-23.14-1.4-28.77-39.98-36.39-100.39Z" />
    <path class="st0" d="m234.06,147.6h5.7s-16,50.38-35.57,49.31c-20.79-1.14-28.34-19.95-28.34-19.95l3.32-1.02s5.96,18.64,25.11,18.47c12.19-.11,30.72-23.49,29.79-46.81Z" />
    <path class="st0" d="m234.01,155.58c-21.83,28.91-45.91,13.81-48.98,15.26-1.94.92,4,2.38,4,2.38,0,0,24.62,10.77,47.53-17.7,4.97-6.18-2.55.06-2.55.06Z" />
    <path class="st0" d="m149.12,210.92c-4.54,17.69-5.45,73.08-21.91,85.33-1.49,1.11-10.39,2-12.13,2.33-34.14,6.37,4.32,5.64,7.15,5.45,7.49-.51,22.4-21.62,28.77-93.45.42-4.79-.87-3.57-1.87.34Zm-23.37,89.51c-.75.04-2.6-1.08-2.6-1.64,0-.28,1.47-.22,3.13-.9,1.77-.73,2.94-1.45,3.01-1.33.15.26-2.75,3.83-3.54,3.87Z" />
    <path class="st0" d="m152.67,208.88c-.11-2.94-3.77,126.81-19.52,136.68-5.19,3.25-10.39-27.54-11.5-25.28-1.31,2.67,7.69,33.05,10.43,30.78,20.17-16.69,21.2-132.98,23-148.64s-2.41,6.47-2.41,6.47Z" />
  </g>
</svg>
